<svg height="1000" width="1000">
<rect width="1000" height="1000" style="fill:rgb(255,255,255);stroke-width:3;stroke:rgb(0,0,0)" />
 <line x1="339.660004" y1="300.693024" x2="460.681763" y2="468.237671" style="stroke:rgb(255,0,0);stroke-width:2" />
 <line x1="460.681763" y1="468.237671" x2="428.517395" y2="727.603210" style="stroke:rgb(255,0,0);stroke-width:2" />
 <line x1="428.517395" y1="727.603210" x2="274.632965" y2="616.936035" style="stroke:rgb(255,0,0);stroke-width:2" />
 <line x1="274.632965" y1="616.936035" x2="339.660004" y2="300.693024" style="stroke:rgb(255,0,0);stroke-width:2" />
 <line x1="676.311646" y1="250.000000" x2="726.532104" y2="443.691162" style="stroke:rgb(255,0,0);stroke-width:2" />
 <line x1="726.532104" y1="443.691162" x2="730.948792" y2="724.240112" style="stroke:rgb(255,0,0);stroke-width:2" />
 <line x1="730.948792" y1="724.240112" x2="672.062744" y2="597.645081" style="stroke:rgb(255,0,0);stroke-width:2" />
 <line x1="672.062744" y1="597.645081" x2="676.311646" y2="250.000000" style="stroke:rgb(255,0,0);stroke-width:2" />
 <line x1="339.660004" y1="300.693024" x2="676.311646" y2="250.000000" style="stroke:rgb(255,0,0);stroke-width:2" />
 <line x1="460.681763" y1="468.237671" x2="726.532104" y2="443.691162" style="stroke:rgb(255,0,0);stroke-width:2" />
 <line x1="428.517395" y1="727.603210" x2="730.948792" y2="724.240112" style="stroke:rgb(255,0,0);stroke-width:2" />
 <line x1="274.632965" y1="616.936035" x2="672.062744" y2="597.645081" style="stroke:rgb(255,0,0);stroke-width:2" />
<circle cx="339.660004" cy="300.693024" r="4" stroke="black"  fill="red" />
<circle cx="460.681763" cy="468.237671" r="4" stroke="black"  fill="red" />
<circle cx="428.517395" cy="727.603210" r="4" stroke="black"  fill="red" />
<circle cx="274.632965" cy="616.936035" r="4" stroke="black"  fill="red" />
<circle cx="676.311646" cy="250.000000" r="4" stroke="black"  fill="red" />
<circle cx="726.532104" cy="443.691162" r="4" stroke="black"  fill="red" />
<circle cx="730.948792" cy="724.240112" r="4" stroke="black"  fill="red" />
<circle cx="672.062744" cy="597.645081" r="4" stroke="black"  fill="red" />
</svg>