<svg height="1000" width="1000">
<rect width="1000" height="1000" style="fill:rgb(255,255,255);stroke-width:3;stroke:rgb(0,0,0)" />
 <line x1="266.529236" y1="585.536865" x2="354.750946" y2="568.584045" style="stroke:rgb(255,0,0);stroke-width:2" />
 <line x1="354.750946" y1="568.584045" x2="593.971191" y2="723.488403" style="stroke:rgb(255,0,0);stroke-width:2" />
 <line x1="593.971191" y1="723.488403" x2="600.644958" y2="802.658813" style="stroke:rgb(255,0,0);stroke-width:2" />
 <line x1="600.644958" y1="802.658813" x2="266.529236" y2="585.536865" style="stroke:rgb(255,0,0);stroke-width:2" />
 <line x1="480.268097" y1="250.000000" x2="507.945923" y2="328.668640" style="stroke:rgb(255,0,0);stroke-width:2" />
 <line x1="507.945923" y1="328.668640" x2="749.451172" y2="482.526825" style="stroke:rgb(255,0,0);stroke-width:2" />
 <line x1="749.451172" y1="482.526825" x2="818.859558" y2="465.072113" style="stroke:rgb(255,0,0);stroke-width:2" />
 <line x1="818.859558" y1="465.072113" x2="480.268097" y2="250.000000" style="stroke:rgb(255,0,0);stroke-width:2" />
 <line x1="266.529236" y1="585.536865" x2="480.268097" y2="250.000000" style="stroke:rgb(255,0,0);stroke-width:2" />
 <line x1="354.750946" y1="568.584045" x2="507.945923" y2="328.668640" style="stroke:rgb(255,0,0);stroke-width:2" />
 <line x1="593.971191" y1="723.488403" x2="749.451172" y2="482.526825" style="stroke:rgb(255,0,0);stroke-width:2" />
 <line x1="600.644958" y1="802.658813" x2="818.859558" y2="465.072113" style="stroke:rgb(255,0,0);stroke-width:2" />
<circle cx="266.529236" cy="585.536865" r="4" stroke="black"  fill="red" />
<circle cx="354.750946" cy="568.584045" r="4" stroke="black"  fill="red" />
<circle cx="593.971191" cy="723.488403" r="4" stroke="black"  fill="red" />
<circle cx="600.644958" cy="802.658813" r="4" stroke="black"  fill="red" />
<circle cx="480.268097" cy="250.000000" r="4" stroke="black"  fill="red" />
<circle cx="507.945923" cy="328.668640" r="4" stroke="black"  fill="red" />
<circle cx="749.451172" cy="482.526825" r="4" stroke="black"  fill="red" />
<circle cx="818.859558" cy="465.072113" r="4" stroke="black"  fill="red" />
</svg>