<svg height="1000" width="1000">
<rect width="1000" height="1000" style="fill:rgb(255,255,255);stroke-width:3;stroke:rgb(0,0,0)" />
 <line x1="250.738556" y1="575.745056" x2="401.419250" y2="561.104980" style="stroke:rgb(255,0,0);stroke-width:2" />
 <line x1="401.419250" y1="561.104980" x2="627.527222" y2="720.787354" style="stroke:rgb(255,0,0);stroke-width:2" />
 <line x1="627.527222" y1="720.787354" x2="551.082153" y2="798.850647" style="stroke:rgb(255,0,0);stroke-width:2" />
 <line x1="551.082153" y1="798.850647" x2="250.738556" y2="575.745056" style="stroke:rgb(255,0,0);stroke-width:2" />
 <line x1="437.514404" y1="250.000000" x2="543.280640" y2="323.875793" style="stroke:rgb(255,0,0);stroke-width:2" />
 <line x1="543.280640" y1="323.875793" x2="788.985535" y2="474.362061" style="stroke:rgb(255,0,0);stroke-width:2" />
 <line x1="788.985535" y1="474.362061" x2="774.477905" y2="455.501587" style="stroke:rgb(255,0,0);stroke-width:2" />
 <line x1="774.477905" y1="455.501587" x2="437.514404" y2="250.000000" style="stroke:rgb(255,0,0);stroke-width:2" />
 <line x1="250.738556" y1="575.745056" x2="437.514404" y2="250.000000" style="stroke:rgb(255,0,0);stroke-width:2" />
 <line x1="401.419250" y1="561.104980" x2="543.280640" y2="323.875793" style="stroke:rgb(255,0,0);stroke-width:2" />
 <line x1="627.527222" y1="720.787354" x2="788.985535" y2="474.362061" style="stroke:rgb(255,0,0);stroke-width:2" />
 <line x1="551.082153" y1="798.850647" x2="774.477905" y2="455.501587" style="stroke:rgb(255,0,0);stroke-width:2" />
<circle cx="250.738556" cy="575.745056" r="4" stroke="black"  fill="red" />
<circle cx="401.419250" cy="561.104980" r="4" stroke="black"  fill="red" />
<circle cx="627.527222" cy="720.787354" r="4" stroke="black"  fill="red" />
<circle cx="551.082153" cy="798.850647" r="4" stroke="black"  fill="red" />
<circle cx="437.514404" cy="250.000000" r="4" stroke="black"  fill="red" />
<circle cx="543.280640" cy="323.875793" r="4" stroke="black"  fill="red" />
<circle cx="788.985535" cy="474.362061" r="4" stroke="black"  fill="red" />
<circle cx="774.477905" cy="455.501587" r="4" stroke="black"  fill="red" />
</svg>