<svg height="1000" width="1000">
<rect width="1000" height="1000" style="fill:rgb(255,255,255);stroke-width:3;stroke:rgb(0,0,0)" />
 <line x1="332.209717" y1="464.842957" x2="602.505859" y2="464.842957" style="stroke:rgb(255,0,0);stroke-width:2" />
 <line x1="602.505859" y1="464.842957" x2="628.520752" y2="718.048767" style="stroke:rgb(255,0,0);stroke-width:2" />
 <line x1="628.520752" y1="718.048767" x2="306.194855" y2="718.048767" style="stroke:rgb(255,0,0);stroke-width:2" />
 <line x1="306.194855" y1="718.048767" x2="332.209717" y2="464.842957" style="stroke:rgb(255,0,0);stroke-width:2" />
 <line x1="294.798218" y1="251.073700" x2="639.917358" y2="251.073700" style="stroke:rgb(255,0,0);stroke-width:2" />
 <line x1="639.917358" y1="251.073700" x2="684.715576" y2="537.071533" style="stroke:rgb(255,0,0);stroke-width:2" />
 <line x1="684.715576" y1="537.071533" x2="250.000000" y2="537.071533" style="stroke:rgb(255,0,0);stroke-width:2" />
 <line x1="250.000000" y1="537.071533" x2="294.798218" y2="251.073700" style="stroke:rgb(255,0,0);stroke-width:2" />
 <line x1="332.209717" y1="464.842957" x2="294.798218" y2="251.073700" style="stroke:rgb(255,0,0);stroke-width:2" />
 <line x1="602.505859" y1="464.842957" x2="639.917358" y2="251.073700" style="stroke:rgb(255,0,0);stroke-width:2" />
 <line x1="628.520752" y1="718.048767" x2="684.715576" y2="537.071533" style="stroke:rgb(255,0,0);stroke-width:2" />
 <line x1="306.194855" y1="718.048767" x2="250.000000" y2="537.071533" style="stroke:rgb(255,0,0);stroke-width:2" />
<circle cx="332.209717" cy="464.842957" r="4" stroke="black"  fill="red" />
<circle cx="602.505859" cy="464.842957" r="4" stroke="black"  fill="red" />
<circle cx="628.520752" cy="718.048767" r="4" stroke="black"  fill="red" />
<circle cx="306.194855" cy="718.048767" r="4" stroke="black"  fill="red" />
<circle cx="294.798218" cy="251.073700" r="4" stroke="black"  fill="red" />
<circle cx="639.917358" cy="251.073700" r="4" stroke="black"  fill="red" />
<circle cx="684.715576" cy="537.071533" r="4" stroke="black"  fill="red" />
<circle cx="250.000000" cy="537.071533" r="4" stroke="black"  fill="red" />
</svg>