<svg height="1000" width="1000">
<rect width="1000" height="1000" style="fill:rgb(255,255,255);stroke-width:3;stroke:rgb(0,0,0)" />
 <line x1="271.302338" y1="586.892456" x2="347.436768" y2="569.608276" style="stroke:rgb(255,0,0);stroke-width:2" />
 <line x1="347.436768" y1="569.608276" x2="588.193848" y2="723.824890" style="stroke:rgb(255,0,0);stroke-width:2" />
 <line x1="588.193848" y1="723.824890" x2="608.539795" y2="802.704834" style="stroke:rgb(255,0,0);stroke-width:2" />
 <line x1="608.539795" y1="802.704834" x2="271.302338" y2="586.892456" style="stroke:rgb(255,0,0);stroke-width:2" />
 <line x1="488.080078" y1="250.000000" x2="502.147461" y2="329.030060" style="stroke:rgb(255,0,0);stroke-width:2" />
 <line x1="502.147461" y1="329.030060" x2="742.221130" y2="483.559296" style="stroke:rgb(255,0,0);stroke-width:2" />
 <line x1="742.221130" y1="483.559296" x2="823.978088" y2="466.425201" style="stroke:rgb(255,0,0);stroke-width:2" />
 <line x1="823.978088" y1="466.425201" x2="488.080078" y2="250.000000" style="stroke:rgb(255,0,0);stroke-width:2" />
 <line x1="271.302338" y1="586.892456" x2="488.080078" y2="250.000000" style="stroke:rgb(255,0,0);stroke-width:2" />
 <line x1="347.436768" y1="569.608276" x2="502.147461" y2="329.030060" style="stroke:rgb(255,0,0);stroke-width:2" />
 <line x1="588.193848" y1="723.824890" x2="742.221130" y2="483.559296" style="stroke:rgb(255,0,0);stroke-width:2" />
 <line x1="608.539795" y1="802.704834" x2="823.978088" y2="466.425201" style="stroke:rgb(255,0,0);stroke-width:2" />
<circle cx="271.302338" cy="586.892456" r="4" stroke="black"  fill="red" />
<circle cx="347.436768" cy="569.608276" r="4" stroke="black"  fill="red" />
<circle cx="588.193848" cy="723.824890" r="4" stroke="black"  fill="red" />
<circle cx="608.539795" cy="802.704834" r="4" stroke="black"  fill="red" />
<circle cx="488.080078" cy="250.000000" r="4" stroke="black"  fill="red" />
<circle cx="502.147461" cy="329.030060" r="4" stroke="black"  fill="red" />
<circle cx="742.221130" cy="483.559296" r="4" stroke="black"  fill="red" />
<circle cx="823.978088" cy="466.425201" r="4" stroke="black"  fill="red" />
</svg>