<svg height="1000" width="1000">
<rect width="1000" height="1000" style="fill:rgb(255,255,255);stroke-width:3;stroke:rgb(0,0,0)" />
 <line x1="279.667389" y1="588.754456" x2="336.765625" y2="571.011841" style="stroke:rgb(255,0,0);stroke-width:2" />
 <line x1="336.765625" y1="571.011841" x2="579.458618" y2="724.255005" style="stroke:rgb(255,0,0);stroke-width:2" />
 <line x1="579.458618" y1="724.255005" x2="620.080322" y2="802.454468" style="stroke:rgb(255,0,0);stroke-width:2" />
 <line x1="620.080322" y1="802.454468" x2="279.667389" y2="588.754456" style="stroke:rgb(255,0,0);stroke-width:2" />
 <line x1="500.071411" y1="250.000000" x2="493.527161" y2="329.324066" style="stroke:rgb(255,0,0);stroke-width:2" />
 <line x1="493.527161" y1="329.324066" x2="731.091370" y2="484.918121" style="stroke:rgb(255,0,0);stroke-width:2" />
 <line x1="731.091370" y1="484.918121" x2="830.463135" y2="468.300659" style="stroke:rgb(255,0,0);stroke-width:2" />
 <line x1="830.463135" y1="468.300659" x2="500.071411" y2="250.000000" style="stroke:rgb(255,0,0);stroke-width:2" />
 <line x1="279.667389" y1="588.754456" x2="500.071411" y2="250.000000" style="stroke:rgb(255,0,0);stroke-width:2" />
 <line x1="336.765625" y1="571.011841" x2="493.527161" y2="329.324066" style="stroke:rgb(255,0,0);stroke-width:2" />
 <line x1="579.458618" y1="724.255005" x2="731.091370" y2="484.918121" style="stroke:rgb(255,0,0);stroke-width:2" />
 <line x1="620.080322" y1="802.454468" x2="830.463135" y2="468.300659" style="stroke:rgb(255,0,0);stroke-width:2" />
<circle cx="279.667389" cy="588.754456" r="4" stroke="black"  fill="red" />
<circle cx="336.765625" cy="571.011841" r="4" stroke="black"  fill="red" />
<circle cx="579.458618" cy="724.255005" r="4" stroke="black"  fill="red" />
<circle cx="620.080322" cy="802.454468" r="4" stroke="black"  fill="red" />
<circle cx="500.071411" cy="250.000000" r="4" stroke="black"  fill="red" />
<circle cx="493.527161" cy="329.324066" r="4" stroke="black"  fill="red" />
<circle cx="731.091370" cy="484.918121" r="4" stroke="black"  fill="red" />
<circle cx="830.463135" cy="468.300659" r="4" stroke="black"  fill="red" />
</svg>