<svg height="1000" width="1000">
<rect width="1000" height="1000" style="fill:rgb(255,255,255);stroke-width:3;stroke:rgb(0,0,0)" />
 <line x1="259.567047" y1="536.104980" x2="522.432007" y2="531.882080" style="stroke:rgb(255,0,0);stroke-width:2" />
 <line x1="522.432007" y1="531.882080" x2="638.862976" y2="719.380981" style="stroke:rgb(255,0,0);stroke-width:2" />
 <line x1="638.862976" y1="719.380981" x2="315.345306" y2="750.839478" style="stroke:rgb(255,0,0);stroke-width:2" />
 <line x1="315.345306" y1="750.839478" x2="259.567047" y2="536.104980" style="stroke:rgb(255,0,0);stroke-width:2" />
 <line x1="291.991272" y1="258.683350" x2="590.903564" y2="284.768311" style="stroke:rgb(255,0,0);stroke-width:2" />
 <line x1="590.903564" y1="284.768311" x2="751.333435" y2="433.339600" style="stroke:rgb(255,0,0);stroke-width:2" />
 <line x1="751.333435" y1="433.339600" x2="372.309967" y2="423.234955" style="stroke:rgb(255,0,0);stroke-width:2" />
 <line x1="372.309967" y1="423.234955" x2="291.991272" y2="258.683350" style="stroke:rgb(255,0,0);stroke-width:2" />
 <line x1="259.567047" y1="536.104980" x2="291.991272" y2="258.683350" style="stroke:rgb(255,0,0);stroke-width:2" />
 <line x1="522.432007" y1="531.882080" x2="590.903564" y2="284.768311" style="stroke:rgb(255,0,0);stroke-width:2" />
 <line x1="638.862976" y1="719.380981" x2="751.333435" y2="433.339600" style="stroke:rgb(255,0,0);stroke-width:2" />
 <line x1="315.345306" y1="750.839478" x2="372.309967" y2="423.234955" style="stroke:rgb(255,0,0);stroke-width:2" />
<circle cx="259.567047" cy="536.104980" r="4" stroke="black"  fill="red" />
<circle cx="522.432007" cy="531.882080" r="4" stroke="black"  fill="red" />
<circle cx="638.862976" cy="719.380981" r="4" stroke="black"  fill="red" />
<circle cx="315.345306" cy="750.839478" r="4" stroke="black"  fill="red" />
<circle cx="291.991272" cy="258.683350" r="4" stroke="black"  fill="red" />
<circle cx="590.903564" cy="284.768311" r="4" stroke="black"  fill="red" />
<circle cx="751.333435" cy="433.339600" r="4" stroke="black"  fill="red" />
<circle cx="372.309967" cy="423.234955" r="4" stroke="black"  fill="red" />
</svg>