<svg height="1000" width="1000">
<rect width="1000" height="1000" style="fill:rgb(255,255,255);stroke-width:3;stroke:rgb(0,0,0)" />
 <line x1="309.154022" y1="592.623535" x2="310.336884" y2="573.932312" style="stroke:rgb(255,0,0);stroke-width:2" />
 <line x1="310.336884" y1="573.932312" x2="555.887451" y2="724.922363" style="stroke:rgb(255,0,0);stroke-width:2" />
 <line x1="555.887451" y1="724.922363" x2="648.669189" y2="799.935364" style="stroke:rgb(255,0,0);stroke-width:2" />
 <line x1="648.669189" y1="799.935364" x2="309.154022" y2="592.623535" style="stroke:rgb(255,0,0);stroke-width:2" />
 <line x1="533.171692" y1="250.000000" x2="471.127563" y2="328.611359" style="stroke:rgb(255,0,0);stroke-width:2" />
 <line x1="471.127563" y1="328.611359" x2="699.969421" y2="487.386017" style="stroke:rgb(255,0,0);stroke-width:2" />
 <line x1="699.969421" y1="487.386017" x2="841.036438" y2="472.313477" style="stroke:rgb(255,0,0);stroke-width:2" />
 <line x1="841.036438" y1="472.313477" x2="533.171692" y2="250.000000" style="stroke:rgb(255,0,0);stroke-width:2" />
 <line x1="309.154022" y1="592.623535" x2="533.171692" y2="250.000000" style="stroke:rgb(255,0,0);stroke-width:2" />
 <line x1="310.336884" y1="573.932312" x2="471.127563" y2="328.611359" style="stroke:rgb(255,0,0);stroke-width:2" />
 <line x1="555.887451" y1="724.922363" x2="699.969421" y2="487.386017" style="stroke:rgb(255,0,0);stroke-width:2" />
 <line x1="648.669189" y1="799.935364" x2="841.036438" y2="472.313477" style="stroke:rgb(255,0,0);stroke-width:2" />
<circle cx="309.154022" cy="592.623535" r="4" stroke="black"  fill="red" />
<circle cx="310.336884" cy="573.932312" r="4" stroke="black"  fill="red" />
<circle cx="555.887451" cy="724.922363" r="4" stroke="black"  fill="red" />
<circle cx="648.669189" cy="799.935364" r="4" stroke="black"  fill="red" />
<circle cx="533.171692" cy="250.000000" r="4" stroke="black"  fill="red" />
<circle cx="471.127563" cy="328.611359" r="4" stroke="black"  fill="red" />
<circle cx="699.969421" cy="487.386017" r="4" stroke="black"  fill="red" />
<circle cx="841.036438" cy="472.313477" r="4" stroke="black"  fill="red" />
</svg>