<svg height="1000" width="1000">
<rect width="1000" height="1000" style="fill:rgb(255,255,255);stroke-width:3;stroke:rgb(0,0,0)" />
 <line x1="611.502930" y1="342.145935" x2="675.380127" y2="293.508087" style="stroke:rgb(255,0,0);stroke-width:2" />
 <line x1="675.380127" y1="293.508087" x2="406.376343" y2="389.701263" style="stroke:rgb(255,0,0);stroke-width:2" />
 <line x1="406.376343" y1="389.701263" x2="257.286346" y2="465.346802" style="stroke:rgb(255,0,0);stroke-width:2" />
 <line x1="257.286346" y1="465.346802" x2="611.502930" y2="342.145935" style="stroke:rgb(255,0,0);stroke-width:2" />
 <line x1="745.024414" y1="725.935425" x2="768.873962" y2="577.638184" style="stroke:rgb(255,0,0);stroke-width:2" />
 <line x1="768.873962" y1="577.638184" x2="507.284424" y2="641.463806" style="stroke:rgb(255,0,0);stroke-width:2" />
 <line x1="507.284424" y1="641.463806" x2="402.417511" y2="791.916565" style="stroke:rgb(255,0,0);stroke-width:2" />
 <line x1="402.417511" y1="791.916565" x2="745.024414" y2="725.935425" style="stroke:rgb(255,0,0);stroke-width:2" />
 <line x1="611.502930" y1="342.145935" x2="745.024414" y2="725.935425" style="stroke:rgb(255,0,0);stroke-width:2" />
 <line x1="675.380127" y1="293.508087" x2="768.873962" y2="577.638184" style="stroke:rgb(255,0,0);stroke-width:2" />
 <line x1="406.376343" y1="389.701263" x2="507.284424" y2="641.463806" style="stroke:rgb(255,0,0);stroke-width:2" />
 <line x1="257.286346" y1="465.346802" x2="402.417511" y2="791.916565" style="stroke:rgb(255,0,0);stroke-width:2" />
<circle cx="611.502930" cy="342.145935" r="4" stroke="black"  fill="red" />
<circle cx="675.380127" cy="293.508087" r="4" stroke="black"  fill="red" />
<circle cx="406.376343" cy="389.701263" r="4" stroke="black"  fill="red" />
<circle cx="257.286346" cy="465.346802" r="4" stroke="black"  fill="red" />
<circle cx="745.024414" cy="725.935425" r="4" stroke="black"  fill="red" />
<circle cx="768.873962" cy="577.638184" r="4" stroke="black"  fill="red" />
<circle cx="507.284424" cy="641.463806" r="4" stroke="black"  fill="red" />
<circle cx="402.417511" cy="791.916565" r="4" stroke="black"  fill="red" />
</svg>