<svg height="1000" width="1000">
<rect width="1000" height="1000" style="fill:rgb(255,255,255);stroke-width:3;stroke:rgb(0,0,0)" />
 <line x1="258.869904" y1="582.570679" x2="369.813782" y2="566.333557" style="stroke:rgb(255,0,0);stroke-width:2" />
 <line x1="369.813782" y1="566.333557" x2="605.390320" y2="722.706787" style="stroke:rgb(255,0,0);stroke-width:2" />
 <line x1="605.390320" y1="722.706787" x2="584.459473" y2="802.056824" style="stroke:rgb(255,0,0);stroke-width:2" />
 <line x1="584.459473" y1="802.056824" x2="258.869904" y2="582.570679" style="stroke:rgb(255,0,0);stroke-width:2" />
 <line x1="465.165527" y1="250.000000" x2="519.642029" y2="327.559296" style="stroke:rgb(255,0,0);stroke-width:2" />
 <line x1="519.642029" y1="327.559296" x2="763.408203" y2="480.168762" style="stroke:rgb(255,0,0);stroke-width:2" />
 <line x1="763.408203" y1="480.168762" x2="806.679749" y2="462.138489" style="stroke:rgb(255,0,0);stroke-width:2" />
 <line x1="806.679749" y1="462.138489" x2="465.165527" y2="250.000000" style="stroke:rgb(255,0,0);stroke-width:2" />
 <line x1="258.869904" y1="582.570679" x2="465.165527" y2="250.000000" style="stroke:rgb(255,0,0);stroke-width:2" />
 <line x1="369.813782" y1="566.333557" x2="519.642029" y2="327.559296" style="stroke:rgb(255,0,0);stroke-width:2" />
 <line x1="605.390320" y1="722.706787" x2="763.408203" y2="480.168762" style="stroke:rgb(255,0,0);stroke-width:2" />
 <line x1="584.459473" y1="802.056824" x2="806.679749" y2="462.138489" style="stroke:rgb(255,0,0);stroke-width:2" />
<circle cx="258.869904" cy="582.570679" r="4" stroke="black"  fill="red" />
<circle cx="369.813782" cy="566.333557" r="4" stroke="black"  fill="red" />
<circle cx="605.390320" cy="722.706787" r="4" stroke="black"  fill="red" />
<circle cx="584.459473" cy="802.056824" r="4" stroke="black"  fill="red" />
<circle cx="465.165527" cy="250.000000" r="4" stroke="black"  fill="red" />
<circle cx="519.642029" cy="327.559296" r="4" stroke="black"  fill="red" />
<circle cx="763.408203" cy="480.168762" r="4" stroke="black"  fill="red" />
<circle cx="806.679749" cy="462.138489" r="4" stroke="black"  fill="red" />
</svg>