<svg height="1000" width="1000">
<rect width="1000" height="1000" style="fill:rgb(255,255,255);stroke-width:3;stroke:rgb(0,0,0)" />
 <line x1="571.159058" y1="332.697205" x2="623.493896" y2="271.812042" style="stroke:rgb(255,0,0);stroke-width:2" />
 <line x1="623.493896" y1="271.812042" x2="380.452332" y2="421.968445" style="stroke:rgb(255,0,0);stroke-width:2" />
 <line x1="380.452332" y1="421.968445" x2="250.406784" y2="527.031372" style="stroke:rgb(255,0,0);stroke-width:2" />
 <line x1="250.406784" y1="527.031372" x2="571.159058" y2="332.697205" style="stroke:rgb(255,0,0);stroke-width:2" />
 <line x1="781.751953" y1="680.221375" x2="774.163513" y2="530.210388" style="stroke:rgb(255,0,0);stroke-width:2" />
 <line x1="774.163513" y1="530.210388" x2="531.625977" y2="647.164734" style="stroke:rgb(255,0,0);stroke-width:2" />
 <line x1="531.625977" y1="647.164734" x2="460.426239" y2="816.172668" style="stroke:rgb(255,0,0);stroke-width:2" />
 <line x1="460.426239" y1="816.172668" x2="781.751953" y2="680.221375" style="stroke:rgb(255,0,0);stroke-width:2" />
 <line x1="571.159058" y1="332.697205" x2="781.751953" y2="680.221375" style="stroke:rgb(255,0,0);stroke-width:2" />
 <line x1="623.493896" y1="271.812042" x2="774.163513" y2="530.210388" style="stroke:rgb(255,0,0);stroke-width:2" />
 <line x1="380.452332" y1="421.968445" x2="531.625977" y2="647.164734" style="stroke:rgb(255,0,0);stroke-width:2" />
 <line x1="250.406784" y1="527.031372" x2="460.426239" y2="816.172668" style="stroke:rgb(255,0,0);stroke-width:2" />
<circle cx="571.159058" cy="332.697205" r="4" stroke="black"  fill="red" />
<circle cx="623.493896" cy="271.812042" r="4" stroke="black"  fill="red" />
<circle cx="380.452332" cy="421.968445" r="4" stroke="black"  fill="red" />
<circle cx="250.406784" cy="527.031372" r="4" stroke="black"  fill="red" />
<circle cx="781.751953" cy="680.221375" r="4" stroke="black"  fill="red" />
<circle cx="774.163513" cy="530.210388" r="4" stroke="black"  fill="red" />
<circle cx="531.625977" cy="647.164734" r="4" stroke="black"  fill="red" />
<circle cx="460.426239" cy="816.172668" r="4" stroke="black"  fill="red" />
</svg>