<svg height="1000" width="1000">
<rect width="1000" height="1000" style="fill:rgb(255,255,255);stroke-width:3;stroke:rgb(0,0,0)" />
 <line x1="310.098816" y1="323.016968" x2="593.837891" y2="323.016968" style="stroke:rgb(255,0,0);stroke-width:2" />
 <line x1="593.837891" y1="323.016968" x2="595.878662" y2="608.541748" style="stroke:rgb(255,0,0);stroke-width:2" />
 <line x1="595.878662" y1="608.541748" x2="308.058014" y2="608.541748" style="stroke:rgb(255,0,0);stroke-width:2" />
 <line x1="308.058014" y1="608.541748" x2="310.098816" y2="323.016968" style="stroke:rgb(255,0,0);stroke-width:2" />
 <line x1="253.996735" y1="250.000000" x2="649.940002" y2="250.000000" style="stroke:rgb(255,0,0);stroke-width:2" />
 <line x1="649.940002" y1="250.000000" x2="653.936707" y2="649.240479" style="stroke:rgb(255,0,0);stroke-width:2" />
 <line x1="653.936707" y1="649.240479" x2="250.000000" y2="649.240479" style="stroke:rgb(255,0,0);stroke-width:2" />
 <line x1="250.000000" y1="649.240479" x2="253.996735" y2="250.000000" style="stroke:rgb(255,0,0);stroke-width:2" />
 <line x1="310.098816" y1="323.016968" x2="253.996735" y2="250.000000" style="stroke:rgb(255,0,0);stroke-width:2" />
 <line x1="593.837891" y1="323.016968" x2="649.940002" y2="250.000000" style="stroke:rgb(255,0,0);stroke-width:2" />
 <line x1="595.878662" y1="608.541748" x2="653.936707" y2="649.240479" style="stroke:rgb(255,0,0);stroke-width:2" />
 <line x1="308.058014" y1="608.541748" x2="250.000000" y2="649.240479" style="stroke:rgb(255,0,0);stroke-width:2" />
<circle cx="310.098816" cy="323.016968" r="4" stroke="black"  fill="red" />
<circle cx="593.837891" cy="323.016968" r="4" stroke="black"  fill="red" />
<circle cx="595.878662" cy="608.541748" r="4" stroke="black"  fill="red" />
<circle cx="308.058014" cy="608.541748" r="4" stroke="black"  fill="red" />
<circle cx="253.996735" cy="250.000000" r="4" stroke="black"  fill="red" />
<circle cx="649.940002" cy="250.000000" r="4" stroke="black"  fill="red" />
<circle cx="653.936707" cy="649.240479" r="4" stroke="black"  fill="red" />
<circle cx="250.000000" cy="649.240479" r="4" stroke="black"  fill="red" />
</svg>