<svg height="1000" width="1000">
<rect width="1000" height="1000" style="fill:rgb(255,255,255);stroke-width:3;stroke:rgb(0,0,0)" />
 <line x1="250.000000" y1="541.060120" x2="496.926971" y2="533.890503" style="stroke:rgb(255,0,0);stroke-width:2" />
 <line x1="496.926971" y1="533.890503" x2="654.425232" y2="712.214966" style="stroke:rgb(255,0,0);stroke-width:2" />
 <line x1="654.425232" y1="712.214966" x2="379.364044" y2="762.526917" style="stroke:rgb(255,0,0);stroke-width:2" />
 <line x1="379.364044" y1="762.526917" x2="250.000000" y2="541.060120" style="stroke:rgb(255,0,0);stroke-width:2" />
 <line x1="325.953735" y1="250.000000" x2="590.911011" y2="292.755371" style="stroke:rgb(255,0,0);stroke-width:2" />
 <line x1="590.911011" y1="292.755371" x2="796.393250" y2="439.936707" style="stroke:rgb(255,0,0);stroke-width:2" />
 <line x1="796.393250" y1="439.936707" x2="505.301331" y2="424.676483" style="stroke:rgb(255,0,0);stroke-width:2" />
 <line x1="505.301331" y1="424.676483" x2="325.953735" y2="250.000000" style="stroke:rgb(255,0,0);stroke-width:2" />
 <line x1="250.000000" y1="541.060120" x2="325.953735" y2="250.000000" style="stroke:rgb(255,0,0);stroke-width:2" />
 <line x1="496.926971" y1="533.890503" x2="590.911011" y2="292.755371" style="stroke:rgb(255,0,0);stroke-width:2" />
 <line x1="654.425232" y1="712.214966" x2="796.393250" y2="439.936707" style="stroke:rgb(255,0,0);stroke-width:2" />
 <line x1="379.364044" y1="762.526917" x2="505.301331" y2="424.676483" style="stroke:rgb(255,0,0);stroke-width:2" />
<circle cx="250.000000" cy="541.060120" r="4" stroke="black"  fill="red" />
<circle cx="496.926971" cy="533.890503" r="4" stroke="black"  fill="red" />
<circle cx="654.425232" cy="712.214966" r="4" stroke="black"  fill="red" />
<circle cx="379.364044" cy="762.526917" r="4" stroke="black"  fill="red" />
<circle cx="325.953735" cy="250.000000" r="4" stroke="black"  fill="red" />
<circle cx="590.911011" cy="292.755371" r="4" stroke="black"  fill="red" />
<circle cx="796.393250" cy="439.936707" r="4" stroke="black"  fill="red" />
<circle cx="505.301331" cy="424.676483" r="4" stroke="black"  fill="red" />
</svg>