<svg height="1000" width="1000">
<rect width="1000" height="1000" style="fill:rgb(255,255,255);stroke-width:3;stroke:rgb(0,0,0)" />
 <line x1="698.234192" y1="402.128296" x2="778.028687" y2="393.252747" style="stroke:rgb(255,0,0);stroke-width:2" />
 <line x1="778.028687" y1="393.252747" x2="497.845398" y2="337.453979" style="stroke:rgb(255,0,0);stroke-width:2" />
 <line x1="497.845398" y1="337.453979" x2="331.077545" y2="325.683258" style="stroke:rgb(255,0,0);stroke-width:2" />
 <line x1="331.077545" y1="325.683258" x2="698.234192" y2="402.128296" style="stroke:rgb(255,0,0);stroke-width:2" />
 <line x1="615.436707" y1="799.956116" x2="712.137695" y2="685.022217" style="stroke:rgb(255,0,0);stroke-width:2" />
 <line x1="712.137695" y1="685.022217" x2="454.954956" y2="605.273376" style="stroke:rgb(255,0,0);stroke-width:2" />
 <line x1="454.954956" y1="605.273376" x2="287.656555" y2="680.402222" style="stroke:rgb(255,0,0);stroke-width:2" />
 <line x1="287.656555" y1="680.402222" x2="615.436707" y2="799.956116" style="stroke:rgb(255,0,0);stroke-width:2" />
 <line x1="698.234192" y1="402.128296" x2="615.436707" y2="799.956116" style="stroke:rgb(255,0,0);stroke-width:2" />
 <line x1="778.028687" y1="393.252747" x2="712.137695" y2="685.022217" style="stroke:rgb(255,0,0);stroke-width:2" />
 <line x1="497.845398" y1="337.453979" x2="454.954956" y2="605.273376" style="stroke:rgb(255,0,0);stroke-width:2" />
 <line x1="331.077545" y1="325.683258" x2="287.656555" y2="680.402222" style="stroke:rgb(255,0,0);stroke-width:2" />
<circle cx="698.234192" cy="402.128296" r="4" stroke="black"  fill="red" />
<circle cx="778.028687" cy="393.252747" r="4" stroke="black"  fill="red" />
<circle cx="497.845398" cy="337.453979" r="4" stroke="black"  fill="red" />
<circle cx="331.077545" cy="325.683258" r="4" stroke="black"  fill="red" />
<circle cx="615.436707" cy="799.956116" r="4" stroke="black"  fill="red" />
<circle cx="712.137695" cy="685.022217" r="4" stroke="black"  fill="red" />
<circle cx="454.954956" cy="605.273376" r="4" stroke="black"  fill="red" />
<circle cx="287.656555" cy="680.402222" r="4" stroke="black"  fill="red" />
</svg>