<svg height="1000" width="1000">
<rect width="1000" height="1000" style="fill:rgb(255,255,255);stroke-width:3;stroke:rgb(0,0,0)" />
 <line x1="250.000000" y1="570.984314" x2="421.823639" y2="557.420715" style="stroke:rgb(255,0,0);stroke-width:2" />
 <line x1="421.823639" y1="557.420715" x2="640.591797" y2="719.421204" style="stroke:rgb(255,0,0);stroke-width:2" />
 <line x1="640.591797" y1="719.421204" x2="529.875000" y2="795.550537" style="stroke:rgb(255,0,0);stroke-width:2" />
 <line x1="529.875000" y1="795.550537" x2="250.000000" y2="570.984314" style="stroke:rgb(255,0,0);stroke-width:2" />
 <line x1="422.129364" y1="250.000000" x2="557.938721" y2="320.659454" style="stroke:rgb(255,0,0);stroke-width:2" />
 <line x1="557.938721" y1="320.659454" x2="802.932678" y2="470.073181" style="stroke:rgb(255,0,0);stroke-width:2" />
 <line x1="802.932678" y1="470.073181" x2="748.981445" y2="450.960724" style="stroke:rgb(255,0,0);stroke-width:2" />
 <line x1="748.981445" y1="450.960724" x2="422.129364" y2="250.000000" style="stroke:rgb(255,0,0);stroke-width:2" />
 <line x1="250.000000" y1="570.984314" x2="422.129364" y2="250.000000" style="stroke:rgb(255,0,0);stroke-width:2" />
 <line x1="421.823639" y1="557.420715" x2="557.938721" y2="320.659454" style="stroke:rgb(255,0,0);stroke-width:2" />
 <line x1="640.591797" y1="719.421204" x2="802.932678" y2="470.073181" style="stroke:rgb(255,0,0);stroke-width:2" />
 <line x1="529.875000" y1="795.550537" x2="748.981445" y2="450.960724" style="stroke:rgb(255,0,0);stroke-width:2" />
<circle cx="250.000000" cy="570.984314" r="4" stroke="black"  fill="red" />
<circle cx="421.823639" cy="557.420715" r="4" stroke="black"  fill="red" />
<circle cx="640.591797" cy="719.421204" r="4" stroke="black"  fill="red" />
<circle cx="529.875000" cy="795.550537" r="4" stroke="black"  fill="red" />
<circle cx="422.129364" cy="250.000000" r="4" stroke="black"  fill="red" />
<circle cx="557.938721" cy="320.659454" r="4" stroke="black"  fill="red" />
<circle cx="802.932678" cy="470.073181" r="4" stroke="black"  fill="red" />
<circle cx="748.981445" cy="450.960724" r="4" stroke="black"  fill="red" />
</svg>