<svg height="1000" width="1000">
<rect width="1000" height="1000" style="fill:rgb(255,255,255);stroke-width:3;stroke:rgb(0,0,0)" />
 <line x1="326.788666" y1="419.155304" x2="600.172241" y2="419.155304" style="stroke:rgb(255,0,0);stroke-width:2" />
 <line x1="600.172241" y1="419.155304" x2="616.889709" y2="691.876709" style="stroke:rgb(255,0,0);stroke-width:2" />
 <line x1="616.889709" y1="691.876709" x2="310.071198" y2="691.876709" style="stroke:rgb(255,0,0);stroke-width:2" />
 <line x1="310.071198" y1="691.876709" x2="326.788666" y2="419.155304" style="stroke:rgb(255,0,0);stroke-width:2" />
 <line x1="281.048248" y1="250.000000" x2="645.912659" y2="250.000000" style="stroke:rgb(255,0,0);stroke-width:2" />
 <line x1="645.912659" y1="250.000000" x2="676.960938" y2="600.723633" style="stroke:rgb(255,0,0);stroke-width:2" />
 <line x1="676.960938" y1="600.723633" x2="250.000000" y2="600.723633" style="stroke:rgb(255,0,0);stroke-width:2" />
 <line x1="250.000000" y1="600.723633" x2="281.048248" y2="250.000000" style="stroke:rgb(255,0,0);stroke-width:2" />
 <line x1="326.788666" y1="419.155304" x2="281.048248" y2="250.000000" style="stroke:rgb(255,0,0);stroke-width:2" />
 <line x1="600.172241" y1="419.155304" x2="645.912659" y2="250.000000" style="stroke:rgb(255,0,0);stroke-width:2" />
 <line x1="616.889709" y1="691.876709" x2="676.960938" y2="600.723633" style="stroke:rgb(255,0,0);stroke-width:2" />
 <line x1="310.071198" y1="691.876709" x2="250.000000" y2="600.723633" style="stroke:rgb(255,0,0);stroke-width:2" />
<circle cx="326.788666" cy="419.155304" r="4" stroke="black"  fill="red" />
<circle cx="600.172241" cy="419.155304" r="4" stroke="black"  fill="red" />
<circle cx="616.889709" cy="691.876709" r="4" stroke="black"  fill="red" />
<circle cx="310.071198" cy="691.876709" r="4" stroke="black"  fill="red" />
<circle cx="281.048248" cy="250.000000" r="4" stroke="black"  fill="red" />
<circle cx="645.912659" cy="250.000000" r="4" stroke="black"  fill="red" />
<circle cx="676.960938" cy="600.723633" r="4" stroke="black"  fill="red" />
<circle cx="250.000000" cy="600.723633" r="4" stroke="black"  fill="red" />
</svg>