<svg height="1000" width="1000">
<rect width="1000" height="1000" style="fill:rgb(255,255,255);stroke-width:3;stroke:rgb(0,0,0)" />
 <line x1="328.056244" y1="427.831177" x2="600.706238" y2="427.831177" style="stroke:rgb(255,0,0);stroke-width:2" />
 <line x1="600.706238" y1="427.831177" x2="619.048706" y2="697.833008" style="stroke:rgb(255,0,0);stroke-width:2" />
 <line x1="619.048706" y1="697.833008" x2="309.713745" y2="697.833008" style="stroke:rgb(255,0,0);stroke-width:2" />
 <line x1="309.713745" y1="697.833008" x2="328.056244" y2="427.831177" style="stroke:rgb(255,0,0);stroke-width:2" />
 <line x1="283.697021" y1="250.000000" x2="645.065430" y2="250.000000" style="stroke:rgb(255,0,0);stroke-width:2" />
 <line x1="645.065430" y1="250.000000" x2="678.762451" y2="591.078491" style="stroke:rgb(255,0,0);stroke-width:2" />
 <line x1="678.762451" y1="591.078491" x2="250.000000" y2="591.078491" style="stroke:rgb(255,0,0);stroke-width:2" />
 <line x1="250.000000" y1="591.078491" x2="283.697021" y2="250.000000" style="stroke:rgb(255,0,0);stroke-width:2" />
 <line x1="328.056244" y1="427.831177" x2="283.697021" y2="250.000000" style="stroke:rgb(255,0,0);stroke-width:2" />
 <line x1="600.706238" y1="427.831177" x2="645.065430" y2="250.000000" style="stroke:rgb(255,0,0);stroke-width:2" />
 <line x1="619.048706" y1="697.833008" x2="678.762451" y2="591.078491" style="stroke:rgb(255,0,0);stroke-width:2" />
 <line x1="309.713745" y1="697.833008" x2="250.000000" y2="591.078491" style="stroke:rgb(255,0,0);stroke-width:2" />
<circle cx="328.056244" cy="427.831177" r="4" stroke="black"  fill="red" />
<circle cx="600.706238" cy="427.831177" r="4" stroke="black"  fill="red" />
<circle cx="619.048706" cy="697.833008" r="4" stroke="black"  fill="red" />
<circle cx="309.713745" cy="697.833008" r="4" stroke="black"  fill="red" />
<circle cx="283.697021" cy="250.000000" r="4" stroke="black"  fill="red" />
<circle cx="645.065430" cy="250.000000" r="4" stroke="black"  fill="red" />
<circle cx="678.762451" cy="591.078491" r="4" stroke="black"  fill="red" />
<circle cx="250.000000" cy="591.078491" r="4" stroke="black"  fill="red" />
</svg>