<svg height="1000" width="1000">
<rect width="1000" height="1000" style="fill:rgb(255,255,255);stroke-width:3;stroke:rgb(0,0,0)" />
 <line x1="328.352509" y1="429.938538" x2="600.832092" y2="429.938538" style="stroke:rgb(255,0,0);stroke-width:2" />
 <line x1="600.832092" y1="429.938538" x2="619.580444" y2="699.217407" style="stroke:rgb(255,0,0);stroke-width:2" />
 <line x1="619.580444" y1="699.217407" x2="309.604095" y2="699.217407" style="stroke:rgb(255,0,0);stroke-width:2" />
 <line x1="309.604095" y1="699.217407" x2="328.352509" y2="429.938538" style="stroke:rgb(255,0,0);stroke-width:2" />
 <line x1="284.343719" y1="250.000000" x2="644.840820" y2="250.000000" style="stroke:rgb(255,0,0);stroke-width:2" />
 <line x1="644.840820" y1="250.000000" x2="679.184570" y2="588.551270" style="stroke:rgb(255,0,0);stroke-width:2" />
 <line x1="679.184570" y1="588.551270" x2="250.000000" y2="588.551270" style="stroke:rgb(255,0,0);stroke-width:2" />
 <line x1="250.000000" y1="588.551270" x2="284.343719" y2="250.000000" style="stroke:rgb(255,0,0);stroke-width:2" />
 <line x1="328.352509" y1="429.938538" x2="284.343719" y2="250.000000" style="stroke:rgb(255,0,0);stroke-width:2" />
 <line x1="600.832092" y1="429.938538" x2="644.840820" y2="250.000000" style="stroke:rgb(255,0,0);stroke-width:2" />
 <line x1="619.580444" y1="699.217407" x2="679.184570" y2="588.551270" style="stroke:rgb(255,0,0);stroke-width:2" />
 <line x1="309.604095" y1="699.217407" x2="250.000000" y2="588.551270" style="stroke:rgb(255,0,0);stroke-width:2" />
<circle cx="328.352509" cy="429.938538" r="4" stroke="black"  fill="red" />
<circle cx="600.832092" cy="429.938538" r="4" stroke="black"  fill="red" />
<circle cx="619.580444" cy="699.217407" r="4" stroke="black"  fill="red" />
<circle cx="309.604095" cy="699.217407" r="4" stroke="black"  fill="red" />
<circle cx="284.343719" cy="250.000000" r="4" stroke="black"  fill="red" />
<circle cx="644.840820" cy="250.000000" r="4" stroke="black"  fill="red" />
<circle cx="679.184570" cy="588.551270" r="4" stroke="black"  fill="red" />
<circle cx="250.000000" cy="588.551270" r="4" stroke="black"  fill="red" />
</svg>