<svg height="1000" width="1000">
<rect width="1000" height="1000" style="fill:rgb(255,255,255);stroke-width:3;stroke:rgb(0,0,0)" />
 <line x1="304.896118" y1="592.232178" x2="313.461731" y2="573.634644" style="stroke:rgb(255,0,0);stroke-width:2" />
 <line x1="313.461731" y1="573.634644" x2="558.848083" y2="724.878967" style="stroke:rgb(255,0,0);stroke-width:2" />
 <line x1="558.848083" y1="724.878967" x2="645.292847" y2="800.395020" style="stroke:rgb(255,0,0);stroke-width:2" />
 <line x1="645.292847" y1="800.395020" x2="304.896118" y2="592.232178" style="stroke:rgb(255,0,0);stroke-width:2" />
 <line x1="528.975403" y1="250.000000" x2="473.872406" y2="328.821289" style="stroke:rgb(255,0,0);stroke-width:2" />
 <line x1="473.872406" y1="328.821289" x2="703.961426" y2="487.171326" style="stroke:rgb(255,0,0);stroke-width:2" />
 <line x1="703.961426" y1="487.171326" x2="840.229004" y2="471.894714" style="stroke:rgb(255,0,0);stroke-width:2" />
 <line x1="840.229004" y1="471.894714" x2="528.975403" y2="250.000000" style="stroke:rgb(255,0,0);stroke-width:2" />
 <line x1="304.896118" y1="592.232178" x2="528.975403" y2="250.000000" style="stroke:rgb(255,0,0);stroke-width:2" />
 <line x1="313.461731" y1="573.634644" x2="473.872406" y2="328.821289" style="stroke:rgb(255,0,0);stroke-width:2" />
 <line x1="558.848083" y1="724.878967" x2="703.961426" y2="487.171326" style="stroke:rgb(255,0,0);stroke-width:2" />
 <line x1="645.292847" y1="800.395020" x2="840.229004" y2="471.894714" style="stroke:rgb(255,0,0);stroke-width:2" />
<circle cx="304.896118" cy="592.232178" r="4" stroke="black"  fill="red" />
<circle cx="313.461731" cy="573.634644" r="4" stroke="black"  fill="red" />
<circle cx="558.848083" cy="724.878967" r="4" stroke="black"  fill="red" />
<circle cx="645.292847" cy="800.395020" r="4" stroke="black"  fill="red" />
<circle cx="528.975403" cy="250.000000" r="4" stroke="black"  fill="red" />
<circle cx="473.872406" cy="328.821289" r="4" stroke="black"  fill="red" />
<circle cx="703.961426" cy="487.171326" r="4" stroke="black"  fill="red" />
<circle cx="840.229004" cy="471.894714" r="4" stroke="black"  fill="red" />
</svg>