<svg height="1000" width="1000">
<rect width="1000" height="1000" style="fill:rgb(255,255,255);stroke-width:3;stroke:rgb(0,0,0)" />
 <line x1="330.189545" y1="444.008667" x2="601.621094" y2="444.008667" style="stroke:rgb(255,0,0);stroke-width:2" />
 <line x1="601.621094" y1="444.008667" x2="623.205444" y2="707.736450" style="stroke:rgb(255,0,0);stroke-width:2" />
 <line x1="623.205444" y1="707.736450" x2="308.605225" y2="707.736450" style="stroke:rgb(255,0,0);stroke-width:2" />
 <line x1="308.605225" y1="707.736450" x2="330.189545" y2="444.008667" style="stroke:rgb(255,0,0);stroke-width:2" />
 <line x1="288.686005" y1="250.000000" x2="643.124634" y2="250.000000" style="stroke:rgb(255,0,0);stroke-width:2" />
 <line x1="643.124634" y1="250.000000" x2="681.810669" y2="569.633667" style="stroke:rgb(255,0,0);stroke-width:2" />
 <line x1="681.810669" y1="569.633667" x2="250.000000" y2="569.633667" style="stroke:rgb(255,0,0);stroke-width:2" />
 <line x1="250.000000" y1="569.633667" x2="288.686005" y2="250.000000" style="stroke:rgb(255,0,0);stroke-width:2" />
 <line x1="330.189545" y1="444.008667" x2="288.686005" y2="250.000000" style="stroke:rgb(255,0,0);stroke-width:2" />
 <line x1="601.621094" y1="444.008667" x2="643.124634" y2="250.000000" style="stroke:rgb(255,0,0);stroke-width:2" />
 <line x1="623.205444" y1="707.736450" x2="681.810669" y2="569.633667" style="stroke:rgb(255,0,0);stroke-width:2" />
 <line x1="308.605225" y1="707.736450" x2="250.000000" y2="569.633667" style="stroke:rgb(255,0,0);stroke-width:2" />
<circle cx="330.189545" cy="444.008667" r="4" stroke="black"  fill="red" />
<circle cx="601.621094" cy="444.008667" r="4" stroke="black"  fill="red" />
<circle cx="623.205444" cy="707.736450" r="4" stroke="black"  fill="red" />
<circle cx="308.605225" cy="707.736450" r="4" stroke="black"  fill="red" />
<circle cx="288.686005" cy="250.000000" r="4" stroke="black"  fill="red" />
<circle cx="643.124634" cy="250.000000" r="4" stroke="black"  fill="red" />
<circle cx="681.810669" cy="569.633667" r="4" stroke="black"  fill="red" />
<circle cx="250.000000" cy="569.633667" r="4" stroke="black"  fill="red" />
</svg>