<svg height="1000" width="1000">
<rect width="1000" height="1000" style="fill:rgb(255,255,255);stroke-width:3;stroke:rgb(0,0,0)" />
 <line x1="286.057007" y1="589.875732" x2="329.867401" y2="571.855957" style="stroke:rgb(255,0,0);stroke-width:2" />
 <line x1="329.867401" y1="571.855957" x2="573.596924" y2="724.489136" style="stroke:rgb(255,0,0);stroke-width:2" />
 <line x1="573.596924" y1="724.489136" x2="627.546509" y2="802.075378" style="stroke:rgb(255,0,0);stroke-width:2" />
 <line x1="627.546509" y1="802.075378" x2="286.057007" y2="589.875732" style="stroke:rgb(255,0,0);stroke-width:2" />
 <line x1="508.219147" y1="250.000000" x2="487.840027" y2="329.351776" style="stroke:rgb(255,0,0);stroke-width:2" />
 <line x1="487.840027" y1="329.351776" x2="723.496155" y2="485.694519" style="stroke:rgb(255,0,0);stroke-width:2" />
 <line x1="723.496155" y1="485.694519" x2="834.006470" y2="469.442566" style="stroke:rgb(255,0,0);stroke-width:2" />
 <line x1="834.006470" y1="469.442566" x2="508.219147" y2="250.000000" style="stroke:rgb(255,0,0);stroke-width:2" />
 <line x1="286.057007" y1="589.875732" x2="508.219147" y2="250.000000" style="stroke:rgb(255,0,0);stroke-width:2" />
 <line x1="329.867401" y1="571.855957" x2="487.840027" y2="329.351776" style="stroke:rgb(255,0,0);stroke-width:2" />
 <line x1="573.596924" y1="724.489136" x2="723.496155" y2="485.694519" style="stroke:rgb(255,0,0);stroke-width:2" />
 <line x1="627.546509" y1="802.075378" x2="834.006470" y2="469.442566" style="stroke:rgb(255,0,0);stroke-width:2" />
<circle cx="286.057007" cy="589.875732" r="4" stroke="black"  fill="red" />
<circle cx="329.867401" cy="571.855957" r="4" stroke="black"  fill="red" />
<circle cx="573.596924" cy="724.489136" r="4" stroke="black"  fill="red" />
<circle cx="627.546509" cy="802.075378" r="4" stroke="black"  fill="red" />
<circle cx="508.219147" cy="250.000000" r="4" stroke="black"  fill="red" />
<circle cx="487.840027" cy="329.351776" r="4" stroke="black"  fill="red" />
<circle cx="723.496155" cy="485.694519" r="4" stroke="black"  fill="red" />
<circle cx="834.006470" cy="469.442566" r="4" stroke="black"  fill="red" />
</svg>