<svg height="1000" width="1000">
<rect width="1000" height="1000" style="fill:rgb(255,255,255);stroke-width:3;stroke:rgb(0,0,0)" />
 <line x1="323.870361" y1="400.607117" x2="598.970337" y2="400.607117" style="stroke:rgb(255,0,0);stroke-width:2" />
 <line x1="598.970337" y1="400.607117" x2="612.432129" y2="677.961060" style="stroke:rgb(255,0,0);stroke-width:2" />
 <line x1="612.432129" y1="677.961060" x2="310.408539" y2="677.961060" style="stroke:rgb(255,0,0);stroke-width:2" />
 <line x1="310.408539" y1="677.961060" x2="323.870361" y2="400.607117" style="stroke:rgb(255,0,0);stroke-width:2" />
 <line x1="275.477600" y1="250.000000" x2="647.363037" y2="250.000000" style="stroke:rgb(255,0,0);stroke-width:2" />
 <line x1="647.363037" y1="250.000000" x2="672.840637" y2="617.666382" style="stroke:rgb(255,0,0);stroke-width:2" />
 <line x1="672.840637" y1="617.666382" x2="250.000000" y2="617.666382" style="stroke:rgb(255,0,0);stroke-width:2" />
 <line x1="250.000000" y1="617.666382" x2="275.477600" y2="250.000000" style="stroke:rgb(255,0,0);stroke-width:2" />
 <line x1="323.870361" y1="400.607117" x2="275.477600" y2="250.000000" style="stroke:rgb(255,0,0);stroke-width:2" />
 <line x1="598.970337" y1="400.607117" x2="647.363037" y2="250.000000" style="stroke:rgb(255,0,0);stroke-width:2" />
 <line x1="612.432129" y1="677.961060" x2="672.840637" y2="617.666382" style="stroke:rgb(255,0,0);stroke-width:2" />
 <line x1="310.408539" y1="677.961060" x2="250.000000" y2="617.666382" style="stroke:rgb(255,0,0);stroke-width:2" />
<circle cx="323.870361" cy="400.607117" r="4" stroke="black"  fill="red" />
<circle cx="598.970337" cy="400.607117" r="4" stroke="black"  fill="red" />
<circle cx="612.432129" cy="677.961060" r="4" stroke="black"  fill="red" />
<circle cx="310.408539" cy="677.961060" r="4" stroke="black"  fill="red" />
<circle cx="275.477600" cy="250.000000" r="4" stroke="black"  fill="red" />
<circle cx="647.363037" cy="250.000000" r="4" stroke="black"  fill="red" />
<circle cx="672.840637" cy="617.666382" r="4" stroke="black"  fill="red" />
<circle cx="250.000000" cy="617.666382" r="4" stroke="black"  fill="red" />
</svg>