<svg height="1000" width="1000">
<rect width="1000" height="1000" style="fill:rgb(255,255,255);stroke-width:3;stroke:rgb(0,0,0)" />
 <line x1="260.552368" y1="583.342651" x2="365.996765" y2="566.920593" style="stroke:rgb(255,0,0);stroke-width:2" />
 <line x1="365.996765" y1="566.920593" x2="602.554199" y2="722.914978" style="stroke:rgb(255,0,0);stroke-width:2" />
 <line x1="602.554199" y1="722.914978" x2="588.549072" y2="802.270813" style="stroke:rgb(255,0,0);stroke-width:2" />
 <line x1="588.549072" y1="802.270813" x2="260.552368" y2="583.342651" style="stroke:rgb(255,0,0);stroke-width:2" />
 <line x1="468.870453" y1="250.000000" x2="516.707275" y2="327.884094" style="stroke:rgb(255,0,0);stroke-width:2" />
 <line x1="516.707275" y1="327.884094" x2="759.985229" y2="480.794098" style="stroke:rgb(255,0,0);stroke-width:2" />
 <line x1="759.985229" y1="480.794098" x2="809.969238" y2="462.898865" style="stroke:rgb(255,0,0);stroke-width:2" />
 <line x1="809.969238" y1="462.898865" x2="468.870453" y2="250.000000" style="stroke:rgb(255,0,0);stroke-width:2" />
 <line x1="260.552368" y1="583.342651" x2="468.870453" y2="250.000000" style="stroke:rgb(255,0,0);stroke-width:2" />
 <line x1="365.996765" y1="566.920593" x2="516.707275" y2="327.884094" style="stroke:rgb(255,0,0);stroke-width:2" />
 <line x1="602.554199" y1="722.914978" x2="759.985229" y2="480.794098" style="stroke:rgb(255,0,0);stroke-width:2" />
 <line x1="588.549072" y1="802.270813" x2="809.969238" y2="462.898865" style="stroke:rgb(255,0,0);stroke-width:2" />
<circle cx="260.552368" cy="583.342651" r="4" stroke="black"  fill="red" />
<circle cx="365.996765" cy="566.920593" r="4" stroke="black"  fill="red" />
<circle cx="602.554199" cy="722.914978" r="4" stroke="black"  fill="red" />
<circle cx="588.549072" cy="802.270813" r="4" stroke="black"  fill="red" />
<circle cx="468.870453" cy="250.000000" r="4" stroke="black"  fill="red" />
<circle cx="516.707275" cy="327.884094" r="4" stroke="black"  fill="red" />
<circle cx="759.985229" cy="480.794098" r="4" stroke="black"  fill="red" />
<circle cx="809.969238" cy="462.898865" r="4" stroke="black"  fill="red" />
</svg>