<svg height="1000" width="1000">
<rect width="1000" height="1000" style="fill:rgb(255,255,255);stroke-width:3;stroke:rgb(0,0,0)" />
 <line x1="250.000000" y1="571.962036" x2="417.812378" y2="558.179565" style="stroke:rgb(255,0,0);stroke-width:2" />
 <line x1="417.812378" y1="558.179565" x2="638.134521" y2="719.701172" style="stroke:rgb(255,0,0);stroke-width:2" />
 <line x1="638.134521" y1="719.701172" x2="534.218018" y2="796.286743" style="stroke:rgb(255,0,0);stroke-width:2" />
 <line x1="534.218018" y1="796.286743" x2="250.000000" y2="571.962036" style="stroke:rgb(255,0,0);stroke-width:2" />
 <line x1="425.179749" y1="250.000000" x2="555.121582" y2="321.355286" style="stroke:rgb(255,0,0);stroke-width:2" />
 <line x1="555.121582" y1="321.355286" x2="800.384827" y2="470.967773" style="stroke:rgb(255,0,0);stroke-width:2" />
 <line x1="800.384827" y1="470.967773" x2="754.502563" y2="451.887146" style="stroke:rgb(255,0,0);stroke-width:2" />
 <line x1="754.502563" y1="451.887146" x2="425.179749" y2="250.000000" style="stroke:rgb(255,0,0);stroke-width:2" />
 <line x1="250.000000" y1="571.962036" x2="425.179749" y2="250.000000" style="stroke:rgb(255,0,0);stroke-width:2" />
 <line x1="417.812378" y1="558.179565" x2="555.121582" y2="321.355286" style="stroke:rgb(255,0,0);stroke-width:2" />
 <line x1="638.134521" y1="719.701172" x2="800.384827" y2="470.967773" style="stroke:rgb(255,0,0);stroke-width:2" />
 <line x1="534.218018" y1="796.286743" x2="754.502563" y2="451.887146" style="stroke:rgb(255,0,0);stroke-width:2" />
<circle cx="250.000000" cy="571.962036" r="4" stroke="black"  fill="red" />
<circle cx="417.812378" cy="558.179565" r="4" stroke="black"  fill="red" />
<circle cx="638.134521" cy="719.701172" r="4" stroke="black"  fill="red" />
<circle cx="534.218018" cy="796.286743" r="4" stroke="black"  fill="red" />
<circle cx="425.179749" cy="250.000000" r="4" stroke="black"  fill="red" />
<circle cx="555.121582" cy="321.355286" r="4" stroke="black"  fill="red" />
<circle cx="800.384827" cy="470.967773" r="4" stroke="black"  fill="red" />
<circle cx="754.502563" cy="451.887146" r="4" stroke="black"  fill="red" />
</svg>