<svg height="1000" width="1000">
<rect width="1000" height="1000" style="fill:rgb(255,255,255);stroke-width:3;stroke:rgb(0,0,0)" />
 <line x1="332.595581" y1="533.333862" x2="603.533203" y2="533.333862" style="stroke:rgb(255,0,0);stroke-width:2" />
 <line x1="603.533203" y1="533.333862" x2="643.538940" y2="735.000977" style="stroke:rgb(255,0,0);stroke-width:2" />
 <line x1="643.538940" y1="735.000977" x2="292.589783" y2="735.000977" style="stroke:rgb(255,0,0);stroke-width:2" />
 <line x1="292.589783" y1="735.000977" x2="332.595581" y2="533.333862" style="stroke:rgb(255,0,0);stroke-width:2" />
 <line x1="309.363647" y1="273.246399" x2="626.765137" y2="273.246399" style="stroke:rgb(255,0,0);stroke-width:2" />
 <line x1="626.765137" y1="273.246399" x2="684.597656" y2="427.321777" style="stroke:rgb(255,0,0);stroke-width:2" />
 <line x1="684.597656" y1="427.321777" x2="251.531052" y2="427.321777" style="stroke:rgb(255,0,0);stroke-width:2" />
 <line x1="251.531052" y1="427.321777" x2="309.363647" y2="273.246399" style="stroke:rgb(255,0,0);stroke-width:2" />
 <line x1="332.595581" y1="533.333862" x2="309.363647" y2="273.246399" style="stroke:rgb(255,0,0);stroke-width:2" />
 <line x1="603.533203" y1="533.333862" x2="626.765137" y2="273.246399" style="stroke:rgb(255,0,0);stroke-width:2" />
 <line x1="643.538940" y1="735.000977" x2="684.597656" y2="427.321777" style="stroke:rgb(255,0,0);stroke-width:2" />
 <line x1="292.589783" y1="735.000977" x2="251.531052" y2="427.321777" style="stroke:rgb(255,0,0);stroke-width:2" />
<circle cx="332.595581" cy="533.333862" r="4" stroke="black"  fill="red" />
<circle cx="603.533203" cy="533.333862" r="4" stroke="black"  fill="red" />
<circle cx="643.538940" cy="735.000977" r="4" stroke="black"  fill="red" />
<circle cx="292.589783" cy="735.000977" r="4" stroke="black"  fill="red" />
<circle cx="309.363647" cy="273.246399" r="4" stroke="black"  fill="red" />
<circle cx="626.765137" cy="273.246399" r="4" stroke="black"  fill="red" />
<circle cx="684.597656" cy="427.321777" r="4" stroke="black"  fill="red" />
<circle cx="251.531052" cy="427.321777" r="4" stroke="black"  fill="red" />
</svg>