<svg height="1000" width="1000">
<rect width="1000" height="1000" style="fill:rgb(255,255,255);stroke-width:3;stroke:rgb(0,0,0)" />
 <line x1="416.912018" y1="379.557770" x2="406.505798" y2="299.948395" style="stroke:rgb(255,0,0);stroke-width:2" />
 <line x1="406.505798" y1="299.948395" x2="356.097534" y2="581.151489" style="stroke:rgb(255,0,0);stroke-width:2" />
 <line x1="356.097534" y1="581.151489" x2="347.531403" y2="748.114624" style="stroke:rgb(255,0,0);stroke-width:2" />
 <line x1="347.531403" y1="748.114624" x2="416.912018" y2="379.557770" style="stroke:rgb(255,0,0);stroke-width:2" />
 <line x1="816.256409" y1="454.700745" x2="699.486694" y2="360.224670" style="stroke:rgb(255,0,0);stroke-width:2" />
 <line x1="699.486694" y1="360.224670" x2="624.691162" y2="618.891296" style="stroke:rgb(255,0,0);stroke-width:2" />
 <line x1="624.691162" y1="618.891296" x2="703.018677" y2="784.716125" style="stroke:rgb(255,0,0);stroke-width:2" />
 <line x1="703.018677" y1="784.716125" x2="816.256409" y2="454.700745" style="stroke:rgb(255,0,0);stroke-width:2" />
 <line x1="416.912018" y1="379.557770" x2="816.256409" y2="454.700745" style="stroke:rgb(255,0,0);stroke-width:2" />
 <line x1="406.505798" y1="299.948395" x2="699.486694" y2="360.224670" style="stroke:rgb(255,0,0);stroke-width:2" />
 <line x1="356.097534" y1="581.151489" x2="624.691162" y2="618.891296" style="stroke:rgb(255,0,0);stroke-width:2" />
 <line x1="347.531403" y1="748.114624" x2="703.018677" y2="784.716125" style="stroke:rgb(255,0,0);stroke-width:2" />
<circle cx="416.912018" cy="379.557770" r="4" stroke="black"  fill="red" />
<circle cx="406.505798" cy="299.948395" r="4" stroke="black"  fill="red" />
<circle cx="356.097534" cy="581.151489" r="4" stroke="black"  fill="red" />
<circle cx="347.531403" cy="748.114624" r="4" stroke="black"  fill="red" />
<circle cx="816.256409" cy="454.700745" r="4" stroke="black"  fill="red" />
<circle cx="699.486694" cy="360.224670" r="4" stroke="black"  fill="red" />
<circle cx="624.691162" cy="618.891296" r="4" stroke="black"  fill="red" />
<circle cx="703.018677" cy="784.716125" r="4" stroke="black"  fill="red" />
</svg>