<svg height="1000" width="1000">
<rect width="1000" height="1000" style="fill:rgb(255,255,255);stroke-width:3;stroke:rgb(0,0,0)" />
 <line x1="251.254990" y1="576.655762" x2="397.374390" y2="561.806458" style="stroke:rgb(255,0,0);stroke-width:2" />
 <line x1="397.374390" y1="561.806458" x2="624.820557" y2="721.048218" style="stroke:rgb(255,0,0);stroke-width:2" />
 <line x1="624.820557" y1="721.048218" x2="555.293396" y2="799.393860" style="stroke:rgb(255,0,0);stroke-width:2" />
 <line x1="555.293396" y1="799.393860" x2="251.254990" y2="576.655762" style="stroke:rgb(255,0,0);stroke-width:2" />
 <line x1="440.760376" y1="250.000000" x2="540.316345" y2="324.437866" style="stroke:rgb(255,0,0);stroke-width:2" />
 <line x1="540.316345" y1="324.437866" x2="785.978699" y2="475.162109" style="stroke:rgb(255,0,0);stroke-width:2" />
 <line x1="785.978699" y1="475.162109" x2="779.071777" y2="456.378632" style="stroke:rgb(255,0,0);stroke-width:2" />
 <line x1="779.071777" y1="456.378632" x2="440.760376" y2="250.000000" style="stroke:rgb(255,0,0);stroke-width:2" />
 <line x1="251.254990" y1="576.655762" x2="440.760376" y2="250.000000" style="stroke:rgb(255,0,0);stroke-width:2" />
 <line x1="397.374390" y1="561.806458" x2="540.316345" y2="324.437866" style="stroke:rgb(255,0,0);stroke-width:2" />
 <line x1="624.820557" y1="721.048218" x2="785.978699" y2="475.162109" style="stroke:rgb(255,0,0);stroke-width:2" />
 <line x1="555.293396" y1="799.393860" x2="779.071777" y2="456.378632" style="stroke:rgb(255,0,0);stroke-width:2" />
<circle cx="251.254990" cy="576.655762" r="4" stroke="black"  fill="red" />
<circle cx="397.374390" cy="561.806458" r="4" stroke="black"  fill="red" />
<circle cx="624.820557" cy="721.048218" r="4" stroke="black"  fill="red" />
<circle cx="555.293396" cy="799.393860" r="4" stroke="black"  fill="red" />
<circle cx="440.760376" cy="250.000000" r="4" stroke="black"  fill="red" />
<circle cx="540.316345" cy="324.437866" r="4" stroke="black"  fill="red" />
<circle cx="785.978699" cy="475.162109" r="4" stroke="black"  fill="red" />
<circle cx="779.071777" cy="456.378632" r="4" stroke="black"  fill="red" />
</svg>