<svg height="1000" width="1000">
<rect width="1000" height="1000" style="fill:rgb(255,255,255);stroke-width:3;stroke:rgb(0,0,0)" />
 <line x1="300.486115" y1="534.335938" x2="570.023743" y2="532.565552" style="stroke:rgb(255,0,0);stroke-width:2" />
 <line x1="570.023743" y1="532.565552" x2="644.661011" y2="728.252014" style="stroke:rgb(255,0,0);stroke-width:2" />
 <line x1="644.661011" y1="728.252014" x2="298.628235" y2="741.801270" style="stroke:rgb(255,0,0);stroke-width:2" />
 <line x1="298.628235" y1="741.801270" x2="300.486115" y2="534.335938" style="stroke:rgb(255,0,0);stroke-width:2" />
 <line x1="299.408752" y1="267.417114" x2="613.534058" y2="278.526733" style="stroke:rgb(255,0,0);stroke-width:2" />
 <line x1="613.534058" y1="278.526733" x2="719.851685" y2="429.728485" style="stroke:rgb(255,0,0);stroke-width:2" />
 <line x1="719.851685" y1="429.728485" x2="296.708221" y2="425.257996" style="stroke:rgb(255,0,0);stroke-width:2" />
 <line x1="296.708221" y1="425.257996" x2="299.408752" y2="267.417114" style="stroke:rgb(255,0,0);stroke-width:2" />
 <line x1="300.486115" y1="534.335938" x2="299.408752" y2="267.417114" style="stroke:rgb(255,0,0);stroke-width:2" />
 <line x1="570.023743" y1="532.565552" x2="613.534058" y2="278.526733" style="stroke:rgb(255,0,0);stroke-width:2" />
 <line x1="644.661011" y1="728.252014" x2="719.851685" y2="429.728485" style="stroke:rgb(255,0,0);stroke-width:2" />
 <line x1="298.628235" y1="741.801270" x2="296.708221" y2="425.257996" style="stroke:rgb(255,0,0);stroke-width:2" />
<circle cx="300.486115" cy="534.335938" r="4" stroke="black"  fill="red" />
<circle cx="570.023743" cy="532.565552" r="4" stroke="black"  fill="red" />
<circle cx="644.661011" cy="728.252014" r="4" stroke="black"  fill="red" />
<circle cx="298.628235" cy="741.801270" r="4" stroke="black"  fill="red" />
<circle cx="299.408752" cy="267.417114" r="4" stroke="black"  fill="red" />
<circle cx="613.534058" cy="278.526733" r="4" stroke="black"  fill="red" />
<circle cx="719.851685" cy="429.728485" r="4" stroke="black"  fill="red" />
<circle cx="296.708221" cy="425.257996" r="4" stroke="black"  fill="red" />
</svg>