<svg height="1000" width="1000">
<rect width="1000" height="1000" style="fill:rgb(255,255,255);stroke-width:3;stroke:rgb(0,0,0)" />
 <line x1="250.000000" y1="567.984314" x2="433.228638" y2="555.085815" style="stroke:rgb(255,0,0);stroke-width:2" />
 <line x1="433.228638" y1="555.085815" x2="647.077759" y2="718.568237" style="stroke:rgb(255,0,0);stroke-width:2" />
 <line x1="647.077759" y1="718.568237" x2="516.179321" y2="793.122192" style="stroke:rgb(255,0,0);stroke-width:2" />
 <line x1="516.179321" y1="793.122192" x2="250.000000" y2="567.984314" style="stroke:rgb(255,0,0);stroke-width:2" />
 <line x1="412.671539" y1="250.000000" x2="565.629639" y2="318.422150" style="stroke:rgb(255,0,0);stroke-width:2" />
 <line x1="565.629639" y1="318.422150" x2="809.415649" y2="467.287170" style="stroke:rgb(255,0,0);stroke-width:2" />
 <line x1="809.415649" y1="467.287170" x2="730.782227" y2="448.139313" style="stroke:rgb(255,0,0);stroke-width:2" />
 <line x1="730.782227" y1="448.139313" x2="412.671539" y2="250.000000" style="stroke:rgb(255,0,0);stroke-width:2" />
 <line x1="250.000000" y1="567.984314" x2="412.671539" y2="250.000000" style="stroke:rgb(255,0,0);stroke-width:2" />
 <line x1="433.228638" y1="555.085815" x2="565.629639" y2="318.422150" style="stroke:rgb(255,0,0);stroke-width:2" />
 <line x1="647.077759" y1="718.568237" x2="809.415649" y2="467.287170" style="stroke:rgb(255,0,0);stroke-width:2" />
 <line x1="516.179321" y1="793.122192" x2="730.782227" y2="448.139313" style="stroke:rgb(255,0,0);stroke-width:2" />
<circle cx="250.000000" cy="567.984314" r="4" stroke="black"  fill="red" />
<circle cx="433.228638" cy="555.085815" r="4" stroke="black"  fill="red" />
<circle cx="647.077759" cy="718.568237" r="4" stroke="black"  fill="red" />
<circle cx="516.179321" cy="793.122192" r="4" stroke="black"  fill="red" />
<circle cx="412.671539" cy="250.000000" r="4" stroke="black"  fill="red" />
<circle cx="565.629639" cy="318.422150" r="4" stroke="black"  fill="red" />
<circle cx="809.415649" cy="467.287170" r="4" stroke="black"  fill="red" />
<circle cx="730.782227" cy="448.139313" r="4" stroke="black"  fill="red" />
</svg>