<svg height="1000" width="1000">
<rect width="1000" height="1000" style="fill:rgb(255,255,255);stroke-width:3;stroke:rgb(0,0,0)" />
 <line x1="316.621460" y1="358.667236" x2="596.155396" y2="358.667236" style="stroke:rgb(255,0,0);stroke-width:2" />
 <line x1="596.155396" y1="358.667236" x2="603.093384" y2="642.183350" style="stroke:rgb(255,0,0);stroke-width:2" />
 <line x1="603.093384" y1="642.183350" x2="309.683472" y2="642.183350" style="stroke:rgb(255,0,0);stroke-width:2" />
 <line x1="309.683472" y1="642.183350" x2="316.621460" y2="358.667236" style="stroke:rgb(255,0,0);stroke-width:2" />
 <line x1="263.472198" y1="250.000000" x2="649.304626" y2="250.000000" style="stroke:rgb(255,0,0);stroke-width:2" />
 <line x1="649.304626" y1="250.000000" x2="662.776855" y2="641.269287" style="stroke:rgb(255,0,0);stroke-width:2" />
 <line x1="662.776855" y1="641.269287" x2="250.000000" y2="641.269287" style="stroke:rgb(255,0,0);stroke-width:2" />
 <line x1="250.000000" y1="641.269287" x2="263.472198" y2="250.000000" style="stroke:rgb(255,0,0);stroke-width:2" />
 <line x1="316.621460" y1="358.667236" x2="263.472198" y2="250.000000" style="stroke:rgb(255,0,0);stroke-width:2" />
 <line x1="596.155396" y1="358.667236" x2="649.304626" y2="250.000000" style="stroke:rgb(255,0,0);stroke-width:2" />
 <line x1="603.093384" y1="642.183350" x2="662.776855" y2="641.269287" style="stroke:rgb(255,0,0);stroke-width:2" />
 <line x1="309.683472" y1="642.183350" x2="250.000000" y2="641.269287" style="stroke:rgb(255,0,0);stroke-width:2" />
<circle cx="316.621460" cy="358.667236" r="4" stroke="black"  fill="red" />
<circle cx="596.155396" cy="358.667236" r="4" stroke="black"  fill="red" />
<circle cx="603.093384" cy="642.183350" r="4" stroke="black"  fill="red" />
<circle cx="309.683472" cy="642.183350" r="4" stroke="black"  fill="red" />
<circle cx="263.472198" cy="250.000000" r="4" stroke="black"  fill="red" />
<circle cx="649.304626" cy="250.000000" r="4" stroke="black"  fill="red" />
<circle cx="662.776855" cy="641.269287" r="4" stroke="black"  fill="red" />
<circle cx="250.000000" cy="641.269287" r="4" stroke="black"  fill="red" />
</svg>