<svg height="1000" width="1000">
<rect width="1000" height="1000" style="fill:rgb(255,255,255);stroke-width:3;stroke:rgb(0,0,0)" />
 <line x1="392.281799" y1="405.169983" x2="367.791321" y2="328.709778" style="stroke:rgb(255,0,0);stroke-width:2" />
 <line x1="367.791321" y1="328.709778" x2="368.541168" y2="614.394287" style="stroke:rgb(255,0,0);stroke-width:2" />
 <line x1="368.541168" y1="614.394287" x2="390.004730" y2="780.193542" style="stroke:rgb(255,0,0);stroke-width:2" />
 <line x1="390.004730" y1="780.193542" x2="392.281799" y2="405.169983" style="stroke:rgb(255,0,0);stroke-width:2" />
 <line x1="798.627075" y1="407.604431" x2="666.829956" y2="335.559967" style="stroke:rgb(255,0,0);stroke-width:2" />
 <line x1="666.829956" y1="335.559967" x2="639.551819" y2="603.438110" style="stroke:rgb(255,0,0);stroke-width:2" />
 <line x1="639.551819" y1="603.438110" x2="746.301392" y2="752.560913" style="stroke:rgb(255,0,0);stroke-width:2" />
 <line x1="746.301392" y1="752.560913" x2="798.627075" y2="407.604431" style="stroke:rgb(255,0,0);stroke-width:2" />
 <line x1="392.281799" y1="405.169983" x2="798.627075" y2="407.604431" style="stroke:rgb(255,0,0);stroke-width:2" />
 <line x1="367.791321" y1="328.709778" x2="666.829956" y2="335.559967" style="stroke:rgb(255,0,0);stroke-width:2" />
 <line x1="368.541168" y1="614.394287" x2="639.551819" y2="603.438110" style="stroke:rgb(255,0,0);stroke-width:2" />
 <line x1="390.004730" y1="780.193542" x2="746.301392" y2="752.560913" style="stroke:rgb(255,0,0);stroke-width:2" />
<circle cx="392.281799" cy="405.169983" r="4" stroke="black"  fill="red" />
<circle cx="367.791321" cy="328.709778" r="4" stroke="black"  fill="red" />
<circle cx="368.541168" cy="614.394287" r="4" stroke="black"  fill="red" />
<circle cx="390.004730" cy="780.193542" r="4" stroke="black"  fill="red" />
<circle cx="798.627075" cy="407.604431" r="4" stroke="black"  fill="red" />
<circle cx="666.829956" cy="335.559967" r="4" stroke="black"  fill="red" />
<circle cx="639.551819" cy="603.438110" r="4" stroke="black"  fill="red" />
<circle cx="746.301392" cy="752.560913" r="4" stroke="black"  fill="red" />
</svg>