<svg height="1000" width="1000">
<rect width="1000" height="1000" style="fill:rgb(255,255,255);stroke-width:3;stroke:rgb(0,0,0)" />
 <line x1="307.744415" y1="310.364075" x2="593.053162" y2="310.364075" style="stroke:rgb(255,0,0);stroke-width:2" />
 <line x1="593.053162" y1="310.364075" x2="593.461304" y2="596.070801" style="stroke:rgb(255,0,0);stroke-width:2" />
 <line x1="593.461304" y1="596.070801" x2="307.336243" y2="596.070801" style="stroke:rgb(255,0,0);stroke-width:2" />
 <line x1="307.336243" y1="596.070801" x2="307.744415" y2="310.364075" style="stroke:rgb(255,0,0);stroke-width:2" />
 <line x1="250.799973" y1="250.000000" x2="649.997559" y2="250.000000" style="stroke:rgb(255,0,0);stroke-width:2" />
 <line x1="649.997559" y1="250.000000" x2="650.797546" y2="649.969604" style="stroke:rgb(255,0,0);stroke-width:2" />
 <line x1="650.797546" y1="649.969604" x2="250.000000" y2="649.969604" style="stroke:rgb(255,0,0);stroke-width:2" />
 <line x1="250.000000" y1="649.969604" x2="250.799973" y2="250.000000" style="stroke:rgb(255,0,0);stroke-width:2" />
 <line x1="307.744415" y1="310.364075" x2="250.799973" y2="250.000000" style="stroke:rgb(255,0,0);stroke-width:2" />
 <line x1="593.053162" y1="310.364075" x2="649.997559" y2="250.000000" style="stroke:rgb(255,0,0);stroke-width:2" />
 <line x1="593.461304" y1="596.070801" x2="650.797546" y2="649.969604" style="stroke:rgb(255,0,0);stroke-width:2" />
 <line x1="307.336243" y1="596.070801" x2="250.000000" y2="649.969604" style="stroke:rgb(255,0,0);stroke-width:2" />
<circle cx="307.744415" cy="310.364075" r="4" stroke="black"  fill="red" />
<circle cx="593.053162" cy="310.364075" r="4" stroke="black"  fill="red" />
<circle cx="593.461304" cy="596.070801" r="4" stroke="black"  fill="red" />
<circle cx="307.336243" cy="596.070801" r="4" stroke="black"  fill="red" />
<circle cx="250.799973" cy="250.000000" r="4" stroke="black"  fill="red" />
<circle cx="649.997559" cy="250.000000" r="4" stroke="black"  fill="red" />
<circle cx="650.797546" cy="649.969604" r="4" stroke="black"  fill="red" />
<circle cx="250.000000" cy="649.969604" r="4" stroke="black"  fill="red" />
</svg>