<svg height="1000" width="1000">
<rect width="1000" height="1000" style="fill:rgb(255,255,255);stroke-width:3;stroke:rgb(0,0,0)" />
 <line x1="326.106262" y1="414.668488" x2="599.887695" y2="414.668488" style="stroke:rgb(255,0,0);stroke-width:2" />
 <line x1="599.887695" y1="414.668488" x2="615.791870" y2="688.647949" style="stroke:rgb(255,0,0);stroke-width:2" />
 <line x1="615.791870" y1="688.647949" x2="310.202087" y2="688.647949" style="stroke:rgb(255,0,0);stroke-width:2" />
 <line x1="310.202087" y1="688.647949" x2="326.106262" y2="414.668488" style="stroke:rgb(255,0,0);stroke-width:2" />
 <line x1="279.688293" y1="250.000000" x2="646.305664" y2="250.000000" style="stroke:rgb(255,0,0);stroke-width:2" />
 <line x1="646.305664" y1="250.000000" x2="675.993958" y2="605.259521" style="stroke:rgb(255,0,0);stroke-width:2" />
 <line x1="675.993958" y1="605.259521" x2="250.000000" y2="605.259521" style="stroke:rgb(255,0,0);stroke-width:2" />
 <line x1="250.000000" y1="605.259521" x2="279.688293" y2="250.000000" style="stroke:rgb(255,0,0);stroke-width:2" />
 <line x1="326.106262" y1="414.668488" x2="279.688293" y2="250.000000" style="stroke:rgb(255,0,0);stroke-width:2" />
 <line x1="599.887695" y1="414.668488" x2="646.305664" y2="250.000000" style="stroke:rgb(255,0,0);stroke-width:2" />
 <line x1="615.791870" y1="688.647949" x2="675.993958" y2="605.259521" style="stroke:rgb(255,0,0);stroke-width:2" />
 <line x1="310.202087" y1="688.647949" x2="250.000000" y2="605.259521" style="stroke:rgb(255,0,0);stroke-width:2" />
<circle cx="326.106262" cy="414.668488" r="4" stroke="black"  fill="red" />
<circle cx="599.887695" cy="414.668488" r="4" stroke="black"  fill="red" />
<circle cx="615.791870" cy="688.647949" r="4" stroke="black"  fill="red" />
<circle cx="310.202087" cy="688.647949" r="4" stroke="black"  fill="red" />
<circle cx="279.688293" cy="250.000000" r="4" stroke="black"  fill="red" />
<circle cx="646.305664" cy="250.000000" r="4" stroke="black"  fill="red" />
<circle cx="675.993958" cy="605.259521" r="4" stroke="black"  fill="red" />
<circle cx="250.000000" cy="605.259521" r="4" stroke="black"  fill="red" />
</svg>