<svg height="1000" width="1000">
<rect width="1000" height="1000" style="fill:rgb(255,255,255);stroke-width:3;stroke:rgb(0,0,0)" />
 <line x1="324.262268" y1="403.013550" x2="599.129456" y2="403.013550" style="stroke:rgb(255,0,0);stroke-width:2" />
 <line x1="599.129456" y1="403.013550" x2="612.998535" y2="679.846191" style="stroke:rgb(255,0,0);stroke-width:2" />
 <line x1="612.998535" y1="679.846191" x2="310.393158" y2="679.846191" style="stroke:rgb(255,0,0);stroke-width:2" />
 <line x1="310.393158" y1="679.846191" x2="324.262268" y2="403.013550" style="stroke:rgb(255,0,0);stroke-width:2" />
 <line x1="276.192291" y1="250.000000" x2="647.199463" y2="250.000000" style="stroke:rgb(255,0,0);stroke-width:2" />
 <line x1="647.199463" y1="250.000000" x2="673.391724" y2="615.726807" style="stroke:rgb(255,0,0);stroke-width:2" />
 <line x1="673.391724" y1="615.726807" x2="250.000000" y2="615.726807" style="stroke:rgb(255,0,0);stroke-width:2" />
 <line x1="250.000000" y1="615.726807" x2="276.192291" y2="250.000000" style="stroke:rgb(255,0,0);stroke-width:2" />
 <line x1="324.262268" y1="403.013550" x2="276.192291" y2="250.000000" style="stroke:rgb(255,0,0);stroke-width:2" />
 <line x1="599.129456" y1="403.013550" x2="647.199463" y2="250.000000" style="stroke:rgb(255,0,0);stroke-width:2" />
 <line x1="612.998535" y1="679.846191" x2="673.391724" y2="615.726807" style="stroke:rgb(255,0,0);stroke-width:2" />
 <line x1="310.393158" y1="679.846191" x2="250.000000" y2="615.726807" style="stroke:rgb(255,0,0);stroke-width:2" />
<circle cx="324.262268" cy="403.013550" r="4" stroke="black"  fill="red" />
<circle cx="599.129456" cy="403.013550" r="4" stroke="black"  fill="red" />
<circle cx="612.998535" cy="679.846191" r="4" stroke="black"  fill="red" />
<circle cx="310.393158" cy="679.846191" r="4" stroke="black"  fill="red" />
<circle cx="276.192291" cy="250.000000" r="4" stroke="black"  fill="red" />
<circle cx="647.199463" cy="250.000000" r="4" stroke="black"  fill="red" />
<circle cx="673.391724" cy="615.726807" r="4" stroke="black"  fill="red" />
<circle cx="250.000000" cy="615.726807" r="4" stroke="black"  fill="red" />
</svg>