<svg height="1000" width="1000">
<rect width="1000" height="1000" style="fill:rgb(255,255,255);stroke-width:3;stroke:rgb(0,0,0)" />
 <line x1="328.495850" y1="533.446167" x2="599.411621" y2="533.225098" style="stroke:rgb(255,0,0);stroke-width:2" />
 <line x1="599.411621" y1="533.225098" x2="643.941650" y2="734.150513" style="stroke:rgb(255,0,0);stroke-width:2" />
 <line x1="643.941650" y1="734.150513" x2="293.069519" y2="735.852234" style="stroke:rgb(255,0,0);stroke-width:2" />
 <line x1="293.069519" y1="735.852234" x2="328.495850" y2="533.446167" style="stroke:rgb(255,0,0);stroke-width:2" />
 <line x1="307.929779" y1="272.546112" x2="625.280029" y2="273.938110" style="stroke:rgb(255,0,0);stroke-width:2" />
 <line x1="625.280029" y1="273.938110" x2="689.565552" y2="427.606812" style="stroke:rgb(255,0,0);stroke-width:2" />
 <line x1="689.565552" y1="427.606812" x2="256.655151" y2="427.042114" style="stroke:rgb(255,0,0);stroke-width:2" />
 <line x1="256.655151" y1="427.042114" x2="307.929779" y2="272.546112" style="stroke:rgb(255,0,0);stroke-width:2" />
 <line x1="328.495850" y1="533.446167" x2="307.929779" y2="272.546112" style="stroke:rgb(255,0,0);stroke-width:2" />
 <line x1="599.411621" y1="533.225098" x2="625.280029" y2="273.938110" style="stroke:rgb(255,0,0);stroke-width:2" />
 <line x1="643.941650" y1="734.150513" x2="689.565552" y2="427.606812" style="stroke:rgb(255,0,0);stroke-width:2" />
 <line x1="293.069519" y1="735.852234" x2="256.655151" y2="427.042114" style="stroke:rgb(255,0,0);stroke-width:2" />
<circle cx="328.495850" cy="533.446167" r="4" stroke="black"  fill="red" />
<circle cx="599.411621" cy="533.225098" r="4" stroke="black"  fill="red" />
<circle cx="643.941650" cy="734.150513" r="4" stroke="black"  fill="red" />
<circle cx="293.069519" cy="735.852234" r="4" stroke="black"  fill="red" />
<circle cx="307.929779" cy="272.546112" r="4" stroke="black"  fill="red" />
<circle cx="625.280029" cy="273.938110" r="4" stroke="black"  fill="red" />
<circle cx="689.565552" cy="427.606812" r="4" stroke="black"  fill="red" />
<circle cx="256.655151" cy="427.042114" r="4" stroke="black"  fill="red" />
</svg>