<svg height="1000" width="1000">
<rect width="1000" height="1000" style="fill:rgb(255,255,255);stroke-width:3;stroke:rgb(0,0,0)" />
 <line x1="327.438843" y1="423.542694" x2="600.445190" y2="423.542694" style="stroke:rgb(255,0,0);stroke-width:2" />
 <line x1="600.445190" y1="423.542694" x2="617.975525" y2="694.938477" style="stroke:rgb(255,0,0);stroke-width:2" />
 <line x1="617.975525" y1="694.938477" x2="309.908539" y2="694.938477" style="stroke:rgb(255,0,0);stroke-width:2" />
 <line x1="309.908539" y1="694.938477" x2="327.438843" y2="423.542694" style="stroke:rgb(255,0,0);stroke-width:2" />
 <line x1="282.384766" y1="250.000000" x2="645.499268" y2="250.000000" style="stroke:rgb(255,0,0);stroke-width:2" />
 <line x1="645.499268" y1="250.000000" x2="677.884033" y2="595.994995" style="stroke:rgb(255,0,0);stroke-width:2" />
 <line x1="677.884033" y1="595.994995" x2="250.000000" y2="595.994995" style="stroke:rgb(255,0,0);stroke-width:2" />
 <line x1="250.000000" y1="595.994995" x2="282.384766" y2="250.000000" style="stroke:rgb(255,0,0);stroke-width:2" />
 <line x1="327.438843" y1="423.542694" x2="282.384766" y2="250.000000" style="stroke:rgb(255,0,0);stroke-width:2" />
 <line x1="600.445190" y1="423.542694" x2="645.499268" y2="250.000000" style="stroke:rgb(255,0,0);stroke-width:2" />
 <line x1="617.975525" y1="694.938477" x2="677.884033" y2="595.994995" style="stroke:rgb(255,0,0);stroke-width:2" />
 <line x1="309.908539" y1="694.938477" x2="250.000000" y2="595.994995" style="stroke:rgb(255,0,0);stroke-width:2" />
<circle cx="327.438843" cy="423.542694" r="4" stroke="black"  fill="red" />
<circle cx="600.445190" cy="423.542694" r="4" stroke="black"  fill="red" />
<circle cx="617.975525" cy="694.938477" r="4" stroke="black"  fill="red" />
<circle cx="309.908539" cy="694.938477" r="4" stroke="black"  fill="red" />
<circle cx="282.384766" cy="250.000000" r="4" stroke="black"  fill="red" />
<circle cx="645.499268" cy="250.000000" r="4" stroke="black"  fill="red" />
<circle cx="677.884033" cy="595.994995" r="4" stroke="black"  fill="red" />
<circle cx="250.000000" cy="595.994995" r="4" stroke="black"  fill="red" />
</svg>