<svg height="1000" width="1000">
<rect width="1000" height="1000" style="fill:rgb(255,255,255);stroke-width:3;stroke:rgb(0,0,0)" />
 <line x1="250.000000" y1="565.934692" x2="440.323303" y2="553.485474" style="stroke:rgb(255,0,0);stroke-width:2" />
 <line x1="440.323303" y1="553.485474" x2="650.679077" y2="717.993408" style="stroke:rgb(255,0,0);stroke-width:2" />
 <line x1="650.679077" y1="717.993408" x2="506.543427" y2="791.326416" style="stroke:rgb(255,0,0);stroke-width:2" />
 <line x1="506.543427" y1="791.326416" x2="250.000000" y2="565.934692" style="stroke:rgb(255,0,0);stroke-width:2" />
 <line x1="406.144501" y1="250.000000" x2="570.140137" y2="316.810791" style="stroke:rgb(255,0,0);stroke-width:2" />
 <line x1="570.140137" y1="316.810791" x2="812.774170" y2="465.349762" style="stroke:rgb(255,0,0);stroke-width:2" />
 <line x1="812.774170" y1="465.349762" x2="717.337769" y2="446.230896" style="stroke:rgb(255,0,0);stroke-width:2" />
 <line x1="717.337769" y1="446.230896" x2="406.144501" y2="250.000000" style="stroke:rgb(255,0,0);stroke-width:2" />
 <line x1="250.000000" y1="565.934692" x2="406.144501" y2="250.000000" style="stroke:rgb(255,0,0);stroke-width:2" />
 <line x1="440.323303" y1="553.485474" x2="570.140137" y2="316.810791" style="stroke:rgb(255,0,0);stroke-width:2" />
 <line x1="650.679077" y1="717.993408" x2="812.774170" y2="465.349762" style="stroke:rgb(255,0,0);stroke-width:2" />
 <line x1="506.543427" y1="791.326416" x2="717.337769" y2="446.230896" style="stroke:rgb(255,0,0);stroke-width:2" />
<circle cx="250.000000" cy="565.934692" r="4" stroke="black"  fill="red" />
<circle cx="440.323303" cy="553.485474" r="4" stroke="black"  fill="red" />
<circle cx="650.679077" cy="717.993408" r="4" stroke="black"  fill="red" />
<circle cx="506.543427" cy="791.326416" r="4" stroke="black"  fill="red" />
<circle cx="406.144501" cy="250.000000" r="4" stroke="black"  fill="red" />
<circle cx="570.140137" cy="316.810791" r="4" stroke="black"  fill="red" />
<circle cx="812.774170" cy="465.349762" r="4" stroke="black"  fill="red" />
<circle cx="717.337769" cy="446.230896" r="4" stroke="black"  fill="red" />
</svg>