<svg height="1000" width="1000">
<rect width="1000" height="1000" style="fill:rgb(255,255,255);stroke-width:3;stroke:rgb(0,0,0)" />
 <line x1="333.180542" y1="497.227295" x2="602.948242" y2="497.227295" style="stroke:rgb(255,0,0);stroke-width:2" />
 <line x1="602.948242" y1="497.227295" x2="635.703003" y2="729.539978" style="stroke:rgb(255,0,0);stroke-width:2" />
 <line x1="635.703003" y1="729.539978" x2="300.425720" y2="729.539978" style="stroke:rgb(255,0,0);stroke-width:2" />
 <line x1="300.425720" y1="729.539978" x2="333.180542" y2="497.227295" style="stroke:rgb(255,0,0);stroke-width:2" />
 <line x1="302.358490" y1="258.262238" x2="633.770264" y2="258.262238" style="stroke:rgb(255,0,0);stroke-width:2" />
 <line x1="633.770264" y1="258.262238" x2="686.109131" y2="484.949341" style="stroke:rgb(255,0,0);stroke-width:2" />
 <line x1="686.109131" y1="484.949341" x2="250.019623" y2="484.949341" style="stroke:rgb(255,0,0);stroke-width:2" />
 <line x1="250.019623" y1="484.949341" x2="302.358490" y2="258.262238" style="stroke:rgb(255,0,0);stroke-width:2" />
 <line x1="333.180542" y1="497.227295" x2="302.358490" y2="258.262238" style="stroke:rgb(255,0,0);stroke-width:2" />
 <line x1="602.948242" y1="497.227295" x2="633.770264" y2="258.262238" style="stroke:rgb(255,0,0);stroke-width:2" />
 <line x1="635.703003" y1="729.539978" x2="686.109131" y2="484.949341" style="stroke:rgb(255,0,0);stroke-width:2" />
 <line x1="300.425720" y1="729.539978" x2="250.019623" y2="484.949341" style="stroke:rgb(255,0,0);stroke-width:2" />
<circle cx="333.180542" cy="497.227295" r="4" stroke="black"  fill="red" />
<circle cx="602.948242" cy="497.227295" r="4" stroke="black"  fill="red" />
<circle cx="635.703003" cy="729.539978" r="4" stroke="black"  fill="red" />
<circle cx="300.425720" cy="729.539978" r="4" stroke="black"  fill="red" />
<circle cx="302.358490" cy="258.262238" r="4" stroke="black"  fill="red" />
<circle cx="633.770264" cy="258.262238" r="4" stroke="black"  fill="red" />
<circle cx="686.109131" cy="484.949341" r="4" stroke="black"  fill="red" />
<circle cx="250.019623" cy="484.949341" r="4" stroke="black"  fill="red" />
</svg>