<svg height="1000" width="1000">
<rect width="1000" height="1000" style="fill:rgb(255,255,255);stroke-width:3;stroke:rgb(0,0,0)" />
 <line x1="262.388763" y1="584.094849" x2="362.213196" y2="567.491577" style="stroke:rgb(255,0,0);stroke-width:2" />
 <line x1="362.213196" y1="567.491577" x2="599.705200" y2="723.114868" style="stroke:rgb(255,0,0);stroke-width:2" />
 <line x1="599.705200" y1="723.114868" x2="592.611572" y2="802.442627" style="stroke:rgb(255,0,0);stroke-width:2" />
 <line x1="592.611572" y1="802.442627" x2="262.388763" y2="584.094849" style="stroke:rgb(255,0,0);stroke-width:2" />
 <line x1="472.623962" y1="250.000000" x2="513.779236" y2="328.177490" style="stroke:rgb(255,0,0);stroke-width:2" />
 <line x1="513.779236" y1="328.177490" x2="756.517090" y2="481.395752" style="stroke:rgb(255,0,0);stroke-width:2" />
 <line x1="756.517090" y1="481.395752" x2="813.095398" y2="463.641663" style="stroke:rgb(255,0,0);stroke-width:2" />
 <line x1="813.095398" y1="463.641663" x2="472.623962" y2="250.000000" style="stroke:rgb(255,0,0);stroke-width:2" />
 <line x1="262.388763" y1="584.094849" x2="472.623962" y2="250.000000" style="stroke:rgb(255,0,0);stroke-width:2" />
 <line x1="362.213196" y1="567.491577" x2="513.779236" y2="328.177490" style="stroke:rgb(255,0,0);stroke-width:2" />
 <line x1="599.705200" y1="723.114868" x2="756.517090" y2="481.395752" style="stroke:rgb(255,0,0);stroke-width:2" />
 <line x1="592.611572" y1="802.442627" x2="813.095398" y2="463.641663" style="stroke:rgb(255,0,0);stroke-width:2" />
<circle cx="262.388763" cy="584.094849" r="4" stroke="black"  fill="red" />
<circle cx="362.213196" cy="567.491577" r="4" stroke="black"  fill="red" />
<circle cx="599.705200" cy="723.114868" r="4" stroke="black"  fill="red" />
<circle cx="592.611572" cy="802.442627" r="4" stroke="black"  fill="red" />
<circle cx="472.623962" cy="250.000000" r="4" stroke="black"  fill="red" />
<circle cx="513.779236" cy="328.177490" r="4" stroke="black"  fill="red" />
<circle cx="756.517090" cy="481.395752" r="4" stroke="black"  fill="red" />
<circle cx="813.095398" cy="463.641663" r="4" stroke="black"  fill="red" />
</svg>