<svg height="1000" width="1000">
<rect width="1000" height="1000" style="fill:rgb(255,255,255);stroke-width:3;stroke:rgb(0,0,0)" />
 <line x1="317.125519" y1="361.477600" x2="596.343079" y2="361.477600" style="stroke:rgb(255,0,0);stroke-width:2" />
 <line x1="596.343079" y1="361.477600" x2="603.689087" y2="644.726501" style="stroke:rgb(255,0,0);stroke-width:2" />
 <line x1="603.689087" y1="644.726501" x2="309.779510" y2="644.726501" style="stroke:rgb(255,0,0);stroke-width:2" />
 <line x1="309.779510" y1="644.726501" x2="317.125519" y2="361.477600" style="stroke:rgb(255,0,0);stroke-width:2" />
 <line x1="264.248383" y1="250.000000" x2="649.220215" y2="250.000000" style="stroke:rgb(255,0,0);stroke-width:2" />
 <line x1="649.220215" y1="250.000000" x2="663.468628" y2="640.219360" style="stroke:rgb(255,0,0);stroke-width:2" />
 <line x1="663.468628" y1="640.219360" x2="250.000000" y2="640.219360" style="stroke:rgb(255,0,0);stroke-width:2" />
 <line x1="250.000000" y1="640.219360" x2="264.248383" y2="250.000000" style="stroke:rgb(255,0,0);stroke-width:2" />
 <line x1="317.125519" y1="361.477600" x2="264.248383" y2="250.000000" style="stroke:rgb(255,0,0);stroke-width:2" />
 <line x1="596.343079" y1="361.477600" x2="649.220215" y2="250.000000" style="stroke:rgb(255,0,0);stroke-width:2" />
 <line x1="603.689087" y1="644.726501" x2="663.468628" y2="640.219360" style="stroke:rgb(255,0,0);stroke-width:2" />
 <line x1="309.779510" y1="644.726501" x2="250.000000" y2="640.219360" style="stroke:rgb(255,0,0);stroke-width:2" />
<circle cx="317.125519" cy="361.477600" r="4" stroke="black"  fill="red" />
<circle cx="596.343079" cy="361.477600" r="4" stroke="black"  fill="red" />
<circle cx="603.689087" cy="644.726501" r="4" stroke="black"  fill="red" />
<circle cx="309.779510" cy="644.726501" r="4" stroke="black"  fill="red" />
<circle cx="264.248383" cy="250.000000" r="4" stroke="black"  fill="red" />
<circle cx="649.220215" cy="250.000000" r="4" stroke="black"  fill="red" />
<circle cx="663.468628" cy="640.219360" r="4" stroke="black"  fill="red" />
<circle cx="250.000000" cy="640.219360" r="4" stroke="black"  fill="red" />
</svg>