<svg height="1000" width="1000">
<rect width="1000" height="1000" style="fill:rgb(255,255,255);stroke-width:3;stroke:rgb(0,0,0)" />
 <line x1="250.000000" y1="568.994873" x2="429.530273" y2="555.873352" style="stroke:rgb(255,0,0);stroke-width:2" />
 <line x1="429.530273" y1="555.873352" x2="645.061890" y2="718.854248" style="stroke:rgb(255,0,0);stroke-width:2" />
 <line x1="645.061890" y1="718.854248" x2="520.850708" y2="793.967651" style="stroke:rgb(255,0,0);stroke-width:2" />
 <line x1="520.850708" y1="793.967651" x2="250.000000" y2="568.994873" style="stroke:rgb(255,0,0);stroke-width:2" />
 <line x1="415.871857" y1="250.000000" x2="563.191040" y2="319.192383" style="stroke:rgb(255,0,0);stroke-width:2" />
 <line x1="563.191040" y1="319.192383" x2="807.447693" y2="468.232361" style="stroke:rgb(255,0,0);stroke-width:2" />
 <line x1="807.447693" y1="468.232361" x2="737.116333" y2="449.086060" style="stroke:rgb(255,0,0);stroke-width:2" />
 <line x1="737.116333" y1="449.086060" x2="415.871857" y2="250.000000" style="stroke:rgb(255,0,0);stroke-width:2" />
 <line x1="250.000000" y1="568.994873" x2="415.871857" y2="250.000000" style="stroke:rgb(255,0,0);stroke-width:2" />
 <line x1="429.530273" y1="555.873352" x2="563.191040" y2="319.192383" style="stroke:rgb(255,0,0);stroke-width:2" />
 <line x1="645.061890" y1="718.854248" x2="807.447693" y2="468.232361" style="stroke:rgb(255,0,0);stroke-width:2" />
 <line x1="520.850708" y1="793.967651" x2="737.116333" y2="449.086060" style="stroke:rgb(255,0,0);stroke-width:2" />
<circle cx="250.000000" cy="568.994873" r="4" stroke="black"  fill="red" />
<circle cx="429.530273" cy="555.873352" r="4" stroke="black"  fill="red" />
<circle cx="645.061890" cy="718.854248" r="4" stroke="black"  fill="red" />
<circle cx="520.850708" cy="793.967651" r="4" stroke="black"  fill="red" />
<circle cx="415.871857" cy="250.000000" r="4" stroke="black"  fill="red" />
<circle cx="563.191040" cy="319.192383" r="4" stroke="black"  fill="red" />
<circle cx="807.447693" cy="468.232361" r="4" stroke="black"  fill="red" />
<circle cx="737.116333" cy="449.086060" r="4" stroke="black"  fill="red" />
</svg>