<svg height="1000" width="1000">
<rect width="1000" height="1000" style="fill:rgb(255,255,255);stroke-width:3;stroke:rgb(0,0,0)" />
 <line x1="320.469055" y1="380.445862" x2="597.618774" y2="380.445862" style="stroke:rgb(255,0,0);stroke-width:2" />
 <line x1="597.618774" y1="380.445862" x2="607.820068" y2="661.387634" style="stroke:rgb(255,0,0);stroke-width:2" />
 <line x1="607.820068" y1="661.387634" x2="310.267792" y2="661.387634" style="stroke:rgb(255,0,0);stroke-width:2" />
 <line x1="310.267792" y1="661.387634" x2="320.469055" y2="380.445862" style="stroke:rgb(255,0,0);stroke-width:2" />
 <line x1="269.595886" y1="250.000000" x2="648.492004" y2="250.000000" style="stroke:rgb(255,0,0);stroke-width:2" />
 <line x1="648.492004" y1="250.000000" x2="668.087891" y2="631.255737" style="stroke:rgb(255,0,0);stroke-width:2" />
 <line x1="668.087891" y1="631.255737" x2="250.000000" y2="631.255737" style="stroke:rgb(255,0,0);stroke-width:2" />
 <line x1="250.000000" y1="631.255737" x2="269.595886" y2="250.000000" style="stroke:rgb(255,0,0);stroke-width:2" />
 <line x1="320.469055" y1="380.445862" x2="269.595886" y2="250.000000" style="stroke:rgb(255,0,0);stroke-width:2" />
 <line x1="597.618774" y1="380.445862" x2="648.492004" y2="250.000000" style="stroke:rgb(255,0,0);stroke-width:2" />
 <line x1="607.820068" y1="661.387634" x2="668.087891" y2="631.255737" style="stroke:rgb(255,0,0);stroke-width:2" />
 <line x1="310.267792" y1="661.387634" x2="250.000000" y2="631.255737" style="stroke:rgb(255,0,0);stroke-width:2" />
<circle cx="320.469055" cy="380.445862" r="4" stroke="black"  fill="red" />
<circle cx="597.618774" cy="380.445862" r="4" stroke="black"  fill="red" />
<circle cx="607.820068" cy="661.387634" r="4" stroke="black"  fill="red" />
<circle cx="310.267792" cy="661.387634" r="4" stroke="black"  fill="red" />
<circle cx="269.595886" cy="250.000000" r="4" stroke="black"  fill="red" />
<circle cx="648.492004" cy="250.000000" r="4" stroke="black"  fill="red" />
<circle cx="668.087891" cy="631.255737" r="4" stroke="black"  fill="red" />
<circle cx="250.000000" cy="631.255737" r="4" stroke="black"  fill="red" />
</svg>