<svg height="1000" width="1000">
<rect width="1000" height="1000" style="fill:rgb(255,255,255);stroke-width:3;stroke:rgb(0,0,0)" />
 <line x1="322.896057" y1="593.631409" x2="301.304138" y2="574.707642" style="stroke:rgb(255,0,0);stroke-width:2" />
 <line x1="301.304138" y1="574.707642" x2="546.995544" y2="724.981628" style="stroke:rgb(255,0,0);stroke-width:2" />
 <line x1="546.995544" y1="724.981628" x2="658.420776" y2="798.315674" style="stroke:rgb(255,0,0);stroke-width:2" />
 <line x1="658.420776" y1="798.315674" x2="322.896057" y2="593.631409" style="stroke:rgb(255,0,0);stroke-width:2" />
 <line x1="545.801758" y1="250.000000" x2="463.003784" y2="327.772583" style="stroke:rgb(255,0,0);stroke-width:2" />
 <line x1="463.003784" y1="327.772583" x2="687.841614" y2="487.867371" style="stroke:rgb(255,0,0);stroke-width:2" />
 <line x1="687.841614" y1="487.867371" x2="842.620850" y2="473.421783" style="stroke:rgb(255,0,0);stroke-width:2" />
 <line x1="842.620850" y1="473.421783" x2="545.801758" y2="250.000000" style="stroke:rgb(255,0,0);stroke-width:2" />
 <line x1="322.896057" y1="593.631409" x2="545.801758" y2="250.000000" style="stroke:rgb(255,0,0);stroke-width:2" />
 <line x1="301.304138" y1="574.707642" x2="463.003784" y2="327.772583" style="stroke:rgb(255,0,0);stroke-width:2" />
 <line x1="546.995544" y1="724.981628" x2="687.841614" y2="487.867371" style="stroke:rgb(255,0,0);stroke-width:2" />
 <line x1="658.420776" y1="798.315674" x2="842.620850" y2="473.421783" style="stroke:rgb(255,0,0);stroke-width:2" />
<circle cx="322.896057" cy="593.631409" r="4" stroke="black"  fill="red" />
<circle cx="301.304138" cy="574.707642" r="4" stroke="black"  fill="red" />
<circle cx="546.995544" cy="724.981628" r="4" stroke="black"  fill="red" />
<circle cx="658.420776" cy="798.315674" r="4" stroke="black"  fill="red" />
<circle cx="545.801758" cy="250.000000" r="4" stroke="black"  fill="red" />
<circle cx="463.003784" cy="327.772583" r="4" stroke="black"  fill="red" />
<circle cx="687.841614" cy="487.867371" r="4" stroke="black"  fill="red" />
<circle cx="842.620850" cy="473.421783" r="4" stroke="black"  fill="red" />
</svg>