<svg height="1000" width="1000">
<rect width="1000" height="1000" style="fill:rgb(255,255,255);stroke-width:3;stroke:rgb(0,0,0)" />
 <line x1="331.425415" y1="455.365662" x2="602.160278" y2="455.365662" style="stroke:rgb(255,0,0);stroke-width:2" />
 <line x1="602.160278" y1="455.365662" x2="626.166016" y2="713.633545" style="stroke:rgb(255,0,0);stroke-width:2" />
 <line x1="626.166016" y1="713.633545" x2="307.419617" y2="713.633545" style="stroke:rgb(255,0,0);stroke-width:2" />
 <line x1="307.419617" y1="713.633545" x2="331.425415" y2="455.365662" style="stroke:rgb(255,0,0);stroke-width:2" />
 <line x1="292.133148" y1="250.229141" x2="641.452515" y2="250.229141" style="stroke:rgb(255,0,0);stroke-width:2" />
 <line x1="641.452515" y1="250.229141" x2="683.585693" y2="552.061768" style="stroke:rgb(255,0,0);stroke-width:2" />
 <line x1="683.585693" y1="552.061768" x2="250.000000" y2="552.061768" style="stroke:rgb(255,0,0);stroke-width:2" />
 <line x1="250.000000" y1="552.061768" x2="292.133148" y2="250.229141" style="stroke:rgb(255,0,0);stroke-width:2" />
 <line x1="331.425415" y1="455.365662" x2="292.133148" y2="250.229141" style="stroke:rgb(255,0,0);stroke-width:2" />
 <line x1="602.160278" y1="455.365662" x2="641.452515" y2="250.229141" style="stroke:rgb(255,0,0);stroke-width:2" />
 <line x1="626.166016" y1="713.633545" x2="683.585693" y2="552.061768" style="stroke:rgb(255,0,0);stroke-width:2" />
 <line x1="307.419617" y1="713.633545" x2="250.000000" y2="552.061768" style="stroke:rgb(255,0,0);stroke-width:2" />
<circle cx="331.425415" cy="455.365662" r="4" stroke="black"  fill="red" />
<circle cx="602.160278" cy="455.365662" r="4" stroke="black"  fill="red" />
<circle cx="626.166016" cy="713.633545" r="4" stroke="black"  fill="red" />
<circle cx="307.419617" cy="713.633545" r="4" stroke="black"  fill="red" />
<circle cx="292.133148" cy="250.229141" r="4" stroke="black"  fill="red" />
<circle cx="641.452515" cy="250.229141" r="4" stroke="black"  fill="red" />
<circle cx="683.585693" cy="552.061768" r="4" stroke="black"  fill="red" />
<circle cx="250.000000" cy="552.061768" r="4" stroke="black"  fill="red" />
</svg>