<svg height="1000" width="1000">
<rect width="1000" height="1000" style="fill:rgb(255,255,255);stroke-width:3;stroke:rgb(0,0,0)" />
 <line x1="327.117828" y1="421.361389" x2="600.310181" y2="421.361389" style="stroke:rgb(255,0,0);stroke-width:2" />
 <line x1="600.310181" y1="421.361389" x2="617.434082" y2="693.428528" style="stroke:rgb(255,0,0);stroke-width:2" />
 <line x1="617.434082" y1="693.428528" x2="309.993866" y2="693.428528" style="stroke:rgb(255,0,0);stroke-width:2" />
 <line x1="309.993866" y1="693.428528" x2="327.117828" y2="421.361389" style="stroke:rgb(255,0,0);stroke-width:2" />
 <line x1="281.719482" y1="250.000000" x2="645.708496" y2="250.000000" style="stroke:rgb(255,0,0);stroke-width:2" />
 <line x1="645.708496" y1="250.000000" x2="677.427979" y2="598.383118" style="stroke:rgb(255,0,0);stroke-width:2" />
 <line x1="677.427979" y1="598.383118" x2="250.000000" y2="598.383118" style="stroke:rgb(255,0,0);stroke-width:2" />
 <line x1="250.000000" y1="598.383118" x2="281.719482" y2="250.000000" style="stroke:rgb(255,0,0);stroke-width:2" />
 <line x1="327.117828" y1="421.361389" x2="281.719482" y2="250.000000" style="stroke:rgb(255,0,0);stroke-width:2" />
 <line x1="600.310181" y1="421.361389" x2="645.708496" y2="250.000000" style="stroke:rgb(255,0,0);stroke-width:2" />
 <line x1="617.434082" y1="693.428528" x2="677.427979" y2="598.383118" style="stroke:rgb(255,0,0);stroke-width:2" />
 <line x1="309.993866" y1="693.428528" x2="250.000000" y2="598.383118" style="stroke:rgb(255,0,0);stroke-width:2" />
<circle cx="327.117828" cy="421.361389" r="4" stroke="black"  fill="red" />
<circle cx="600.310181" cy="421.361389" r="4" stroke="black"  fill="red" />
<circle cx="617.434082" cy="693.428528" r="4" stroke="black"  fill="red" />
<circle cx="309.993866" cy="693.428528" r="4" stroke="black"  fill="red" />
<circle cx="281.719482" cy="250.000000" r="4" stroke="black"  fill="red" />
<circle cx="645.708496" cy="250.000000" r="4" stroke="black"  fill="red" />
<circle cx="677.427979" cy="598.383118" r="4" stroke="black"  fill="red" />
<circle cx="250.000000" cy="598.383118" r="4" stroke="black"  fill="red" />
</svg>