<svg height="1000" width="1000">
<rect width="1000" height="1000" style="fill:rgb(255,255,255);stroke-width:3;stroke:rgb(0,0,0)" />
 <line x1="323.470856" y1="398.175476" x2="598.808777" y2="398.175476" style="stroke:rgb(255,0,0);stroke-width:2" />
 <line x1="598.808777" y1="398.175476" x2="611.863220" y2="676.034302" style="stroke:rgb(255,0,0);stroke-width:2" />
 <line x1="611.863220" y1="676.034302" x2="310.416412" y2="676.034302" style="stroke:rgb(255,0,0);stroke-width:2" />
 <line x1="310.416412" y1="676.034302" x2="323.470856" y2="398.175476" style="stroke:rgb(255,0,0);stroke-width:2" />
 <line x1="274.758026" y1="250.000000" x2="647.521606" y2="250.000000" style="stroke:rgb(255,0,0);stroke-width:2" />
 <line x1="647.521606" y1="250.000000" x2="672.279663" y2="619.553528" style="stroke:rgb(255,0,0);stroke-width:2" />
 <line x1="672.279663" y1="619.553528" x2="250.000000" y2="619.553528" style="stroke:rgb(255,0,0);stroke-width:2" />
 <line x1="250.000000" y1="619.553528" x2="274.758026" y2="250.000000" style="stroke:rgb(255,0,0);stroke-width:2" />
 <line x1="323.470856" y1="398.175476" x2="274.758026" y2="250.000000" style="stroke:rgb(255,0,0);stroke-width:2" />
 <line x1="598.808777" y1="398.175476" x2="647.521606" y2="250.000000" style="stroke:rgb(255,0,0);stroke-width:2" />
 <line x1="611.863220" y1="676.034302" x2="672.279663" y2="619.553528" style="stroke:rgb(255,0,0);stroke-width:2" />
 <line x1="310.416412" y1="676.034302" x2="250.000000" y2="619.553528" style="stroke:rgb(255,0,0);stroke-width:2" />
<circle cx="323.470856" cy="398.175476" r="4" stroke="black"  fill="red" />
<circle cx="598.808777" cy="398.175476" r="4" stroke="black"  fill="red" />
<circle cx="611.863220" cy="676.034302" r="4" stroke="black"  fill="red" />
<circle cx="310.416412" cy="676.034302" r="4" stroke="black"  fill="red" />
<circle cx="274.758026" cy="250.000000" r="4" stroke="black"  fill="red" />
<circle cx="647.521606" cy="250.000000" r="4" stroke="black"  fill="red" />
<circle cx="672.279663" cy="619.553528" r="4" stroke="black"  fill="red" />
<circle cx="250.000000" cy="619.553528" r="4" stroke="black"  fill="red" />
</svg>