<svg height="1000" width="1000">
<rect width="1000" height="1000" style="fill:rgb(255,255,255);stroke-width:3;stroke:rgb(0,0,0)" />
 <line x1="250.000000" y1="551.991577" x2="477.455750" y2="542.521729" style="stroke:rgb(255,0,0);stroke-width:2" />
 <line x1="477.455750" y1="542.521729" x2="660.875977" y2="714.403442" style="stroke:rgb(255,0,0);stroke-width:2" />
 <line x1="660.875977" y1="714.403442" x2="436.915070" y2="776.623840" style="stroke:rgb(255,0,0);stroke-width:2" />
 <line x1="436.915070" y1="776.623840" x2="250.000000" y2="551.991577" style="stroke:rgb(255,0,0);stroke-width:2" />
 <line x1="361.173584" y1="250.000000" x2="588.411377" y2="304.299713" style="stroke:rgb(255,0,0);stroke-width:2" />
 <line x1="588.411377" y1="304.299713" x2="815.959717" y2="451.513977" style="stroke:rgb(255,0,0);stroke-width:2" />
 <line x1="815.959717" y1="451.513977" x2="608.021912" y2="433.735565" style="stroke:rgb(255,0,0);stroke-width:2" />
 <line x1="608.021912" y1="433.735565" x2="361.173584" y2="250.000000" style="stroke:rgb(255,0,0);stroke-width:2" />
 <line x1="250.000000" y1="551.991577" x2="361.173584" y2="250.000000" style="stroke:rgb(255,0,0);stroke-width:2" />
 <line x1="477.455750" y1="542.521729" x2="588.411377" y2="304.299713" style="stroke:rgb(255,0,0);stroke-width:2" />
 <line x1="660.875977" y1="714.403442" x2="815.959717" y2="451.513977" style="stroke:rgb(255,0,0);stroke-width:2" />
 <line x1="436.915070" y1="776.623840" x2="608.021912" y2="433.735565" style="stroke:rgb(255,0,0);stroke-width:2" />
<circle cx="250.000000" cy="551.991577" r="4" stroke="black"  fill="red" />
<circle cx="477.455750" cy="542.521729" r="4" stroke="black"  fill="red" />
<circle cx="660.875977" cy="714.403442" r="4" stroke="black"  fill="red" />
<circle cx="436.915070" cy="776.623840" r="4" stroke="black"  fill="red" />
<circle cx="361.173584" cy="250.000000" r="4" stroke="black"  fill="red" />
<circle cx="588.411377" cy="304.299713" r="4" stroke="black"  fill="red" />
<circle cx="815.959717" cy="451.513977" r="4" stroke="black"  fill="red" />
<circle cx="608.021912" cy="433.735565" r="4" stroke="black"  fill="red" />
</svg>