<svg height="1000" width="1000">
<rect width="1000" height="1000" style="fill:rgb(255,255,255);stroke-width:3;stroke:rgb(0,0,0)" />
 <line x1="512.097046" y1="334.170624" x2="544.101685" y2="260.538727" style="stroke:rgb(255,0,0);stroke-width:2" />
 <line x1="544.101685" y1="260.538727" x2="356.289368" y2="475.812378" style="stroke:rgb(255,0,0);stroke-width:2" />
 <line x1="356.289368" y1="475.812378" x2="263.100372" y2="614.613953" style="stroke:rgb(255,0,0);stroke-width:2" />
 <line x1="263.100372" y1="614.613953" x2="512.097046" y2="334.170624" style="stroke:rgb(255,0,0);stroke-width:2" />
 <line x1="815.984558" y1="603.938660" x2="764.403748" y2="462.870239" style="stroke:rgb(255,0,0);stroke-width:2" />
 <line x1="764.403748" y1="462.870239" x2="567.261108" y2="646.275696" style="stroke:rgb(255,0,0);stroke-width:2" />
 <line x1="567.261108" y1="646.275696" x2="549.186707" y2="828.776184" style="stroke:rgb(255,0,0);stroke-width:2" />
 <line x1="549.186707" y1="828.776184" x2="815.984558" y2="603.938660" style="stroke:rgb(255,0,0);stroke-width:2" />
 <line x1="512.097046" y1="334.170624" x2="815.984558" y2="603.938660" style="stroke:rgb(255,0,0);stroke-width:2" />
 <line x1="544.101685" y1="260.538727" x2="764.403748" y2="462.870239" style="stroke:rgb(255,0,0);stroke-width:2" />
 <line x1="356.289368" y1="475.812378" x2="567.261108" y2="646.275696" style="stroke:rgb(255,0,0);stroke-width:2" />
 <line x1="263.100372" y1="614.613953" x2="549.186707" y2="828.776184" style="stroke:rgb(255,0,0);stroke-width:2" />
<circle cx="512.097046" cy="334.170624" r="4" stroke="black"  fill="red" />
<circle cx="544.101685" cy="260.538727" r="4" stroke="black"  fill="red" />
<circle cx="356.289368" cy="475.812378" r="4" stroke="black"  fill="red" />
<circle cx="263.100372" cy="614.613953" r="4" stroke="black"  fill="red" />
<circle cx="815.984558" cy="603.938660" r="4" stroke="black"  fill="red" />
<circle cx="764.403748" cy="462.870239" r="4" stroke="black"  fill="red" />
<circle cx="567.261108" cy="646.275696" r="4" stroke="black"  fill="red" />
<circle cx="549.186707" cy="828.776184" r="4" stroke="black"  fill="red" />
</svg>