<svg height="1000" width="1000">
<rect width="1000" height="1000" style="fill:rgb(255,255,255);stroke-width:3;stroke:rgb(0,0,0)" />
 <line x1="332.571350" y1="470.544312" x2="602.666138" y2="470.544312" style="stroke:rgb(255,0,0);stroke-width:2" />
 <line x1="602.666138" y1="470.544312" x2="629.881714" y2="720.483154" style="stroke:rgb(255,0,0);stroke-width:2" />
 <line x1="629.881714" y1="720.483154" x2="305.355774" y2="720.483154" style="stroke:rgb(255,0,0);stroke-width:2" />
 <line x1="305.355774" y1="720.483154" x2="332.571350" y2="470.544312" style="stroke:rgb(255,0,0);stroke-width:2" />
 <line x1="296.302643" y1="251.868683" x2="638.934814" y2="251.868683" style="stroke:rgb(255,0,0);stroke-width:2" />
 <line x1="638.934814" y1="251.868683" x2="685.237427" y2="527.970947" style="stroke:rgb(255,0,0);stroke-width:2" />
 <line x1="685.237427" y1="527.970947" x2="250.000000" y2="527.970947" style="stroke:rgb(255,0,0);stroke-width:2" />
 <line x1="250.000000" y1="527.970947" x2="296.302643" y2="251.868683" style="stroke:rgb(255,0,0);stroke-width:2" />
 <line x1="332.571350" y1="470.544312" x2="296.302643" y2="251.868683" style="stroke:rgb(255,0,0);stroke-width:2" />
 <line x1="602.666138" y1="470.544312" x2="638.934814" y2="251.868683" style="stroke:rgb(255,0,0);stroke-width:2" />
 <line x1="629.881714" y1="720.483154" x2="685.237427" y2="527.970947" style="stroke:rgb(255,0,0);stroke-width:2" />
 <line x1="305.355774" y1="720.483154" x2="250.000000" y2="527.970947" style="stroke:rgb(255,0,0);stroke-width:2" />
<circle cx="332.571350" cy="470.544312" r="4" stroke="black"  fill="red" />
<circle cx="602.666138" cy="470.544312" r="4" stroke="black"  fill="red" />
<circle cx="629.881714" cy="720.483154" r="4" stroke="black"  fill="red" />
<circle cx="305.355774" cy="720.483154" r="4" stroke="black"  fill="red" />
<circle cx="296.302643" cy="251.868683" r="4" stroke="black"  fill="red" />
<circle cx="638.934814" cy="251.868683" r="4" stroke="black"  fill="red" />
<circle cx="685.237427" cy="527.970947" r="4" stroke="black"  fill="red" />
<circle cx="250.000000" cy="527.970947" r="4" stroke="black"  fill="red" />
</svg>